<svg width="89" height="80" viewBox="0 0 89 80" fill="none" xmlns="http://www.w3.org/2000/svg">
<path d="M43.54 72C43.8067 72 44.0733 71.9333 44.34 71.8C44.6067 71.6667 44.8067 71.5333 44.94 71.4L77.74 38.6C78.54 37.8 79.1233 36.9 79.49 35.9C79.8567 34.9 80.04 33.9 80.04 32.9C80.04 31.8333 79.8567 30.8167 79.49 29.85C79.1233 28.8833 78.54 28.0333 77.74 27.3L60.74 10.3C60.0067 9.5 59.1567 8.91667 58.19 8.55C57.2233 8.18333 56.2067 8 55.14 8C54.14 8 53.14 8.18333 52.14 8.55C51.14 8.91667 50.24 9.5 49.44 10.3L48.34 11.4L55.74 18.9C56.74 19.8333 57.4733 20.9 57.94 22.1C58.4067 23.3 58.64 24.5667 58.64 25.9C58.64 28.7 57.69 31.05 55.79 32.95C53.89 34.85 51.54 35.8 48.74 35.8C47.4067 35.8 46.1233 35.5667 44.89 35.1C43.6567 34.6333 42.5733 33.9333 41.64 33L34.14 25.6L16.64 43.1C16.44 43.3 16.29 43.5167 16.19 43.75C16.09 43.9833 16.04 44.2333 16.04 44.5C16.04 45.0333 16.24 45.5167 16.64 45.95C17.04 46.3833 17.5067 46.6 18.04 46.6C18.3067 46.6 18.5733 46.5333 18.84 46.4C19.1067 46.2667 19.3067 46.1333 19.44 46L33.04 32.4L38.64 38L25.14 51.6C24.94 51.8 24.79 52.0167 24.69 52.25C24.59 52.4833 24.54 52.7333 24.54 53C24.54 53.5333 24.74 54 25.14 54.4C25.54 54.8 26.0067 55 26.54 55C26.8067 55 27.0733 54.9333 27.34 54.8C27.6067 54.6667 27.8067 54.5333 27.94 54.4L41.54 40.9L47.14 46.5L33.64 60.1C33.44 60.2333 33.29 60.4333 33.19 60.7C33.09 60.9667 33.04 61.2333 33.04 61.5C33.04 62.0333 33.24 62.5 33.64 62.9C34.04 63.3 34.5067 63.5 35.04 63.5C35.3067 63.5 35.5567 63.45 35.79 63.35C36.0233 63.25 36.24 63.1 36.44 62.9L50.04 49.4L55.64 55L42.04 68.6C41.84 68.8 41.69 69.0167 41.59 69.25C41.49 69.4833 41.44 69.7333 41.44 70C41.44 70.5333 41.6567 71 42.09 71.4C42.5233 71.8 43.0067 72 43.54 72ZM43.44 80C40.9733 80 38.79 79.1833 36.89 77.55C34.99 75.9167 33.8733 73.8667 33.54 71.4C31.2733 71.0667 29.3733 70.1333 27.84 68.6C26.3067 67.0667 25.3733 65.1667 25.04 62.9C22.7733 62.5667 20.89 61.6167 19.39 60.05C17.89 58.4833 16.9733 56.6 16.64 54.4C14.1067 54.0667 12.04 52.9667 10.44 51.1C8.84 49.2333 8.04 47.0333 8.04 44.5C8.04 43.1667 8.29 41.8833 8.79 40.65C9.29 39.4167 10.0067 38.3333 10.94 37.4L34.14 14.3L47.24 27.4C47.3733 27.6 47.5733 27.75 47.84 27.85C48.1067 27.95 48.3733 28 48.64 28C49.24 28 49.74 27.8167 50.14 27.45C50.54 27.0833 50.74 26.6 50.74 26C50.74 25.7333 50.69 25.4667 50.59 25.2C50.49 24.9333 50.34 24.7333 50.14 24.6L35.84 10.3C35.1067 9.5 34.2567 8.91667 33.29 8.55C32.3233 8.18333 31.3067 8 30.24 8C29.24 8 28.24 8.18333 27.24 8.55C26.24 8.91667 25.34 9.5 24.54 10.3L10.44 24.5C9.84 25.1 9.34 25.8 8.94 26.6C8.54 27.4 8.27333 28.2 8.14 29C8.00667 29.8 8.00667 30.6167 8.14 31.45C8.27333 32.2833 8.54 33.0667 8.94 33.8L3.14 39.6C2.00667 38.0667 1.17333 36.3833 0.64 34.55C0.106667 32.7167 -0.0933333 30.8667 0.04 29C0.173333 27.1333 0.64 25.3167 1.44 23.55C2.24 21.7833 3.34 20.2 4.74 18.8L18.84 4.7C20.44 3.16667 22.2233 2 24.19 1.2C26.1567 0.4 28.1733 0 30.24 0C32.3067 0 34.3233 0.4 36.29 1.2C38.2567 2 40.0067 3.16667 41.54 4.7L42.64 5.8L43.74 4.7C45.34 3.16667 47.1233 2 49.09 1.2C51.0567 0.4 53.0733 0 55.14 0C57.2067 0 59.2233 0.4 61.19 1.2C63.1567 2 64.9067 3.16667 66.44 4.7L83.34 21.6C84.8733 23.1333 86.04 24.9 86.84 26.9C87.64 28.9 88.04 30.9333 88.04 33C88.04 35.0667 87.64 37.0833 86.84 39.05C86.04 41.0167 84.8733 42.7667 83.34 44.3L50.54 77C49.6067 77.9333 48.5233 78.6667 47.29 79.2C46.0567 79.7333 44.7733 80 43.44 80Z" fill="#080808"/>
</svg>
