<svg width="80" height="80" viewBox="0 0 80 80" fill="none" xmlns="http://www.w3.org/2000/svg">
<path d="M40 80C34.4667 80 29.2667 78.95 24.4 76.85C19.5333 74.75 15.3 71.9 11.7 68.3C8.1 64.7 5.25 60.4667 3.15 55.6C1.05 50.7333 0 45.5333 0 40C0 34.4667 1.05 29.2667 3.15 24.4C5.25 19.5333 8.1 15.3 11.7 11.7C15.3 8.1 19.5333 5.25 24.4 3.15C29.2667 1.05 34.4667 0 40 0C45.5333 0 50.7333 1.05 55.6 3.15C60.4667 5.25 64.7 8.1 68.3 11.7C71.9 15.3 74.75 19.5333 76.85 24.4C78.95 29.2667 80 34.4667 80 40C80 45.5333 78.95 50.7333 76.85 55.6C74.75 60.4667 71.9 64.7 68.3 68.3C64.7 71.9 60.4667 74.75 55.6 76.85C50.7333 78.95 45.5333 80 40 80ZM60 30L65.4 28.2L67 22.8C64.8667 19.6 62.3 16.85 59.3 14.55C56.3 12.25 53 10.5333 49.4 9.4L44 13.2V18.8L60 30ZM20 30L36 18.8V13.2L30.6 9.4C27 10.5333 23.7 12.25 20.7 14.55C17.7 16.85 15.1333 19.6 13 22.8L14.6 28.2L20 30ZM15.8 60.8L20.4 60.4L23.4 55L17.6 37.6L12 35.6L8 38.6C8 42.9333 8.6 46.8833 9.8 50.45C11 54.0167 13 57.4667 15.8 60.8ZM40 72C41.7333 72 43.4333 71.8667 45.1 71.6C46.7667 71.3333 48.4 70.9333 50 70.4L52.8 64.4L50.2 60H29.8L27.2 64.4L30 70.4C31.6 70.9333 33.2333 71.3333 34.9 71.6C36.5667 71.8667 38.2667 72 40 72ZM31 52H49L54.6 36L40 25.8L25.6 36L31 52ZM64.2 60.8C67 57.4667 69 54.0167 70.2 50.45C71.4 46.8833 72 42.9333 72 38.6L68 35.8L62.4 37.6L56.6 55L59.6 60.4L64.2 60.8Z" fill="#080808"/>
</svg>
