<svg width="80" height="80" viewBox="0 0 80 80" fill="none" xmlns="http://www.w3.org/2000/svg">
<path d="M4 20V4L20 12L4 20ZM64 20V4L80 12L64 20ZM36 16V0L52 8L36 16ZM36 80C30.9333 79.8667 26.2167 79.45 21.85 78.75C17.4833 78.05 13.6833 77.1667 10.45 76.1C7.21667 75.0333 4.66667 73.8 2.8 72.4C0.933333 71 0 69.5333 0 68V32C0 30.3333 1.05 28.7833 3.15 27.35C5.25 25.9167 8.1 24.65 11.7 23.55C15.3 22.45 19.5333 21.5833 24.4 20.95C29.2667 20.3167 34.4667 20 40 20C45.5333 20 50.7333 20.3167 55.6 20.95C60.4667 21.5833 64.7 22.45 68.3 23.55C71.9 24.65 74.75 25.9167 76.85 27.35C78.95 28.7833 80 30.3333 80 32V68C80 69.5333 79.0667 71 77.2 72.4C75.3333 73.8 72.7833 75.0333 69.55 76.1C66.3167 77.1667 62.5167 78.05 58.15 78.75C53.7833 79.45 49.0667 79.8667 44 80V64H36V80ZM40 36C46.4667 36 52.05 35.6167 56.75 34.85C61.45 34.0833 65.2 33.2 68 32.2C68 31.8667 65.4667 31.0833 60.4 29.85C55.3333 28.6167 48.5333 28 40 28C31.4667 28 24.6667 28.6167 19.6 29.85C14.5333 31.0833 12 31.8667 12 32.2C14.8 33.2 18.55 34.0833 23.25 34.85C27.95 35.6167 33.5333 36 40 36ZM28 71.4V56H52V71.4C57.3333 70.8667 61.7 70.0833 65.1 69.05C68.5 68.0167 70.8 67.1 72 66.3V39.2C68.3333 40.6667 63.7333 41.8333 58.2 42.7C52.6667 43.5667 46.6 44 40 44C33.4 44 27.3333 43.5667 21.8 42.7C16.2667 41.8333 11.6667 40.6667 8 39.2V66.3C9.2 67.1 11.5 68.0167 14.9 69.05C18.3 70.0833 22.6667 70.8667 28 71.4Z" fill="#080808"/>
</svg>
