<svg width="24" height="24" viewBox="0 0 24 24" fill="none" xmlns="http://www.w3.org/2000/svg">
<g clip-path="url(#clip0_895_3787)">
<path d="M12.3279 2.44752C12.5715 2.5672 12.8078 2.69815 13.044 2.83168C14.1132 3.43605 15.2106 3.87987 16.4531 3.93745C16.5249 3.94117 16.5249 3.94117 16.5981 3.94496C17.3411 3.9642 18.0863 3.8471 18.8171 3.72373C18.8753 3.71398 18.8753 3.71398 18.9346 3.70402C19.0293 3.68812 19.124 3.67217 19.2187 3.6562C19.222 4.60854 19.2245 5.56087 19.226 6.51322C19.2267 6.95553 19.2277 7.39783 19.2293 7.84014C19.2307 8.22621 19.2316 8.61227 19.2319 8.99834C19.2321 9.20226 19.2325 9.40618 19.2336 9.61009C19.2379 10.4952 19.2256 11.3586 19.0781 12.2343C19.0681 12.294 19.0681 12.294 19.058 12.3548C18.6268 14.9054 17.1958 17.1539 15.4218 18.9843C15.3985 19.0084 15.3753 19.0325 15.3513 19.0573C15.1041 19.3115 14.8504 19.5541 14.5781 19.7812C14.5529 19.8024 14.5276 19.8236 14.5016 19.8454C13.8804 20.3654 13.2305 20.8307 12.5478 21.2666C12.51 21.2908 12.4722 21.3151 12.4332 21.3401C12.3977 21.3624 12.3623 21.3847 12.3257 21.4077C12.2945 21.4275 12.2632 21.4472 12.231 21.4675C12.1351 21.5185 12.0611 21.5495 11.9531 21.5625C11.867 21.5294 11.867 21.5294 11.7782 21.474C11.7282 21.4432 11.7282 21.4432 11.6771 21.4118C11.6415 21.389 11.606 21.3662 11.5693 21.3427C11.5321 21.3194 11.4949 21.296 11.4566 21.272C10.678 20.778 9.93089 20.2335 9.25485 19.6056C9.15801 19.5161 9.05952 19.43 8.95895 19.3447C8.55345 18.9919 8.17098 18.6012 7.82809 18.1875C7.8076 18.1634 7.78711 18.1394 7.766 18.1146C7.13414 17.3729 6.59362 16.5656 6.14059 15.7031C6.12455 15.6727 6.10851 15.6424 6.09198 15.6111C5.56832 14.6134 5.17715 13.5539 4.95114 12.4482C4.94442 12.4157 4.9377 12.3831 4.93078 12.3496C4.909 12.2334 4.89193 12.117 4.87497 12C4.86711 11.9476 4.85926 11.8952 4.85117 11.8412C4.74794 11.0696 4.7691 10.2907 4.77171 9.51402C4.7723 9.30751 4.77235 9.10101 4.77246 8.8945C4.77275 8.5049 4.77352 8.1153 4.77446 7.72569C4.77552 7.28153 4.77603 6.83737 4.7765 6.39321C4.77747 5.48087 4.77912 4.56854 4.78122 3.6562C4.82371 3.66306 4.8662 3.66991 4.90998 3.67697C5.07036 3.70274 5.23076 3.72831 5.39119 3.75376C5.46011 3.76474 5.52902 3.77578 5.59791 3.78691C7.78559 4.13983 9.59497 3.71153 11.4692 2.54605C11.7625 2.37979 12.0099 2.31856 12.3279 2.44752Z" fill="#080808"/>
<path d="M14.4434 0.875961C16.0459 1.82399 17.9772 1.61737 19.7163 1.18065C19.966 1.11525 20.2132 1.04403 20.4586 0.964218C20.5089 0.947943 20.5089 0.947943 20.5601 0.931339C20.6506 0.901605 20.7406 0.870789 20.8307 0.83989C21.0327 0.788566 21.1673 0.772652 21.3751 0.79686C21.5009 0.888999 21.5928 0.962814 21.6308 1.11932C21.6395 1.22788 21.6402 1.33414 21.6386 1.44304C21.6389 1.48452 21.6392 1.52601 21.6395 1.56875C21.6402 1.70782 21.6392 1.84683 21.6383 1.9859C21.6384 2.08563 21.6387 2.18537 21.6391 2.2851C21.6397 2.55634 21.6389 2.82756 21.6378 3.0988C21.6369 3.38353 21.6372 3.66825 21.6373 3.95298C21.6373 4.43217 21.6363 4.91134 21.6348 5.39052C21.6331 5.94181 21.6327 6.49309 21.633 7.04438C21.6333 7.57661 21.6328 8.10883 21.6319 8.64105C21.6315 8.86642 21.6314 9.09179 21.6315 9.31716C21.6315 9.58418 21.6308 9.85119 21.6296 10.1182C21.6293 10.2152 21.6292 10.3122 21.6293 10.4093C21.6339 13.8335 20.2552 17.0112 18.0173 19.5673C17.9618 19.6307 17.9068 19.6944 17.8517 19.7582C17.6211 20.0208 17.3764 20.269 17.1299 20.5166C17.0967 20.55 17.0635 20.5835 17.0293 20.6179C16.8136 20.8329 16.5911 21.0368 16.3594 21.2344C16.316 21.2717 16.2725 21.309 16.2278 21.3475C15.2449 22.1741 14.1924 22.893 13.0782 23.5312C13.0381 23.5543 12.998 23.5773 12.9567 23.601C12.8376 23.6687 12.7179 23.735 12.5977 23.8008C12.562 23.821 12.5263 23.8412 12.4895 23.862C12.2667 23.981 12.0674 24.055 11.8126 24C11.6402 23.9352 11.4816 23.8512 11.3204 23.7627C11.2737 23.7377 11.2271 23.7126 11.1791 23.6869C10.1194 23.1095 9.11939 22.4373 8.18672 21.6724C8.11748 21.6159 8.04749 21.5604 7.97741 21.505C7.2015 20.8875 6.43095 20.17 5.81695 19.3899C5.71239 19.2575 5.60305 19.13 5.49321 19.0019C3.46689 16.5678 2.37703 13.4584 2.37631 10.305C2.37596 10.2037 2.37556 10.1023 2.37513 10.001C2.37411 9.72849 2.37369 9.456 2.37345 9.18351C2.37328 9.01307 2.37299 8.84262 2.37265 8.67218C2.37151 8.07712 2.3709 7.48205 2.37073 6.88698C2.37056 6.3327 2.36915 5.77843 2.36719 5.22416C2.36557 4.74723 2.36484 4.2703 2.36481 3.79337C2.36477 3.50893 2.36436 3.2245 2.36303 2.94006C2.36181 2.67322 2.3617 2.40641 2.36245 2.13957C2.36254 2.04163 2.36222 1.94369 2.36147 1.84575C2.36052 1.71222 2.36101 1.57877 2.36186 1.44524C2.36124 1.40638 2.36062 1.36751 2.35999 1.32746C2.36289 1.12889 2.37426 1.05262 2.49931 0.889763C2.63582 0.788904 2.71974 0.76668 2.88875 0.777931C3.12668 0.818394 3.35379 0.895869 3.58306 0.969711C4.19475 1.15869 4.80654 1.29941 5.43755 1.40623C5.47234 1.41214 5.50713 1.41805 5.54297 1.42413C7.15466 1.68614 8.44991 1.49095 9.86284 0.702744C11.5752 -0.250686 12.7984 -0.122331 14.4434 0.875961ZM10.5323 2.22362C9.20644 2.97518 7.84081 3.31398 6.31646 3.13182C6.26478 3.12585 6.2131 3.11989 6.15986 3.11374C5.72805 3.06067 5.30387 2.98035 4.87958 2.88459C4.54807 2.80478 4.54807 2.80478 4.2188 2.85936C4.09022 2.98756 4.03572 3.06503 4.00784 3.24608C4.00783 3.3042 4.00782 3.36233 4.00781 3.42221C4.00755 3.45473 4.00729 3.48726 4.00702 3.52076C4.00638 3.62949 4.00708 3.73817 4.00778 3.8469C4.00761 3.92501 4.00735 4.00311 4.00702 4.08122C4.00636 4.29347 4.00689 4.50571 4.00766 4.71797C4.00831 4.9411 4.008 5.16422 4.00784 5.38735C4.00771 5.76301 4.00834 6.13866 4.00943 6.51432C4.01067 6.94584 4.01076 7.37736 4.01021 7.80888C4.0097 8.22608 4.01 8.64327 4.01066 9.06046C4.01092 9.23681 4.01093 9.41316 4.0107 9.5895C4.00923 11.1495 4.13114 12.6229 4.64068 14.1094C4.65139 14.1417 4.6621 14.174 4.67313 14.2074C5.48889 16.6568 7.19036 18.9942 9.23443 20.5781C9.28162 20.6178 9.32881 20.6575 9.37743 20.6984C9.75783 21.0172 10.1609 21.2988 10.5733 21.5742C10.6127 21.6006 10.6127 21.6006 10.6529 21.6276C10.9482 21.8252 11.2476 22.016 11.5531 22.1975C11.6051 22.2286 11.657 22.2597 11.7106 22.2917C11.8718 22.365 11.9659 22.3801 12.1407 22.3594C12.2415 22.3244 12.2415 22.3244 12.3317 22.268C12.3664 22.2479 12.4011 22.2277 12.4368 22.207C12.4918 22.1737 12.4918 22.1737 12.5479 22.1396C12.606 22.1052 12.606 22.1052 12.6652 22.07C13.5474 21.5389 14.3631 20.9233 15.1407 20.25C15.1774 20.2186 15.214 20.1873 15.2518 20.155C15.8541 19.6279 16.4332 19.0561 16.9219 18.4219C16.9651 18.3692 17.0084 18.3166 17.0519 18.2642C18.8806 16.0481 19.9845 13.248 19.9824 10.3666C19.9827 10.287 19.983 10.2073 19.9834 10.1277C19.9842 9.91439 19.9844 9.70108 19.9845 9.48776C19.9845 9.35422 19.9848 9.22068 19.985 9.08714C19.9859 8.62064 19.9862 8.15414 19.9862 7.68763C19.9861 7.25349 19.9871 6.81936 19.9886 6.38523C19.9898 6.0112 19.9903 5.63719 19.9903 5.26316C19.9902 5.04029 19.9905 4.81742 19.9915 4.59455C19.9924 4.38558 19.9924 4.17663 19.9917 3.96766C19.9916 3.89103 19.9918 3.81441 19.9924 3.73778C19.9931 3.6332 19.9927 3.52869 19.992 3.42411C19.992 3.36562 19.9921 3.30713 19.9921 3.24686C19.9644 3.06498 19.9113 2.98744 19.7813 2.85936C19.5702 2.7935 19.4012 2.82046 19.1877 2.86613C19.1278 2.87851 19.0679 2.89089 19.0062 2.90365C18.9749 2.91031 18.9436 2.91697 18.9113 2.92383C17.5817 3.2052 16.268 3.32403 14.9532 2.90623C14.8968 2.88865 14.8404 2.87107 14.7823 2.85295C14.2235 2.66646 13.7202 2.37108 13.207 2.08622C12.6465 1.76031 12.6465 1.76031 12.0264 1.62303C11.982 1.62074 11.9376 1.61844 11.8918 1.61607C11.3985 1.68603 10.9571 1.97908 10.5323 2.22362Z" fill="#080808"/>
</g>
<defs>
<clipPath id="clip0_895_3787">
<rect width="24" height="24" fill="white"/>
</clipPath>
</defs>
</svg>
