<svg width="90" height="90" viewBox="0 0 90 90" fill="none" xmlns="http://www.w3.org/2000/svg">
<rect width="90" height="90" rx="45" fill="#19CA77"/>
<path d="M49.5041 26.7079C49.6458 26.8427 49.7874 26.9776 49.9289 27.1126C51.2305 28.3035 52.7882 28.7924 54.5303 28.8748C56.4616 28.971 58.1075 29.6998 59.4305 31.1157C60.5092 32.3292 61.0089 33.8039 61.0869 35.4113C61.1821 37.3188 61.7544 38.8592 63.086 40.2669C64.3533 41.6224 65.0206 43.3349 64.9995 45.1931C64.8976 46.8393 64.3394 48.3291 63.1965 49.535C61.9188 50.8846 61.1814 52.4596 61.1092 54.3252C61.0283 56.335 60.3349 58.0462 58.8582 59.4284C57.624 60.5273 56.127 61.0091 54.496 61.1022C52.6081 61.2108 50.8643 61.8065 49.5502 63.2276C48.4087 64.4237 46.6348 64.9581 45.0256 65C43.0509 64.9695 41.4811 64.2032 40.0711 62.8587C38.7696 61.6679 37.2117 61.1788 35.4697 61.0965C33.4123 60.9959 31.8502 60.1699 30.4486 58.6888C29.4978 57.5949 28.9819 56.1953 28.9252 54.7519C28.8446 52.7721 28.2996 51.1692 26.914 49.7044C25.6467 48.349 24.9794 46.6364 25.0005 44.7782C25.1024 43.132 25.6606 41.6422 26.8035 40.4363C28.0812 39.0867 28.8187 37.5117 28.8908 35.6462C28.9724 33.6185 29.6756 31.9287 31.1562 30.5323C31.5082 30.2155 31.8925 29.9686 32.3066 29.7405C32.3729 29.7029 32.4392 29.6653 32.5075 29.6266C33.3639 29.1676 34.2739 28.9352 35.2421 28.8971C37.254 28.8151 38.8548 28.2433 40.3323 26.8316C42.9024 24.4191 46.873 24.4021 49.5041 26.7079ZM50.5489 39.4228C50.4511 39.5206 50.3534 39.6184 50.2556 39.7162C49.9927 39.9793 49.7301 40.2426 49.4675 40.506C49.1921 40.7822 48.9165 41.0581 48.6409 41.334C48.1201 41.8555 47.5996 42.3771 47.0791 42.8988C46.4861 43.4933 45.8929 44.0874 45.2997 44.6816C44.0803 45.9029 42.8612 47.1244 41.6424 48.3461C41.315 48.0702 40.9966 47.7919 40.6961 47.4864C40.6289 47.4183 40.5616 47.3502 40.4924 47.2801C40.4216 47.2081 40.3509 47.1361 40.278 47.0619C40.1644 46.9471 40.0508 46.8324 39.9371 46.7176C39.6592 46.4369 39.3816 46.1559 39.1047 45.8742C38.9485 45.7153 38.7919 45.5568 38.635 45.3986C38.4878 45.2503 38.3411 45.1014 38.195 44.952C37.6978 44.4523 37.2945 44.1218 36.565 44.0841C36.0241 44.1513 35.6267 44.3675 35.2394 44.7551C34.8964 45.2877 34.7997 45.7201 34.9326 46.3416C35.1227 46.8422 35.4806 47.2036 35.852 47.5757C35.903 47.6274 35.9539 47.679 36.0063 47.7322C36.1738 47.9018 36.3418 48.0707 36.51 48.2395C36.6273 48.3577 36.7446 48.4758 36.8619 48.594C37.1075 48.8411 37.3534 49.0879 37.5996 49.3345C37.9143 49.6499 38.2277 49.9667 38.5407 50.2837C38.7824 50.5281 39.025 50.7715 39.2679 51.0146C39.3838 51.131 39.4994 51.2477 39.6146 51.3647C39.7761 51.5285 39.9388 51.691 40.1018 51.8532C40.1488 51.9013 40.1957 51.9495 40.244 51.9991C40.6555 52.4037 41.0528 52.5744 41.6321 52.6492C42.6305 52.5928 43.3208 51.7238 43.9742 51.0638C44.0915 50.9468 44.2089 50.8299 44.3264 50.7131C44.6437 50.397 44.9597 50.0797 45.2755 49.762C45.6067 49.4292 45.939 49.0973 46.2711 48.7653C46.8285 48.2079 47.385 47.6496 47.941 47.0908C48.5832 46.4454 49.2268 45.8013 49.8711 45.1579C50.4918 44.538 51.1115 43.9171 51.7309 43.2958C51.9941 43.0318 52.2576 42.7682 52.5214 42.5048C52.832 42.1945 53.1418 41.8834 53.451 41.5717C53.5644 41.4577 53.6781 41.3439 53.7921 41.2304C53.948 41.0751 54.1029 40.9188 54.2575 40.7622C54.3025 40.7178 54.3475 40.6734 54.3939 40.6277C54.8357 40.1759 55.1436 39.6468 55.1547 39.0024C55.0731 38.4706 54.8994 38.0841 54.4958 37.7242C54.102 37.4405 53.6743 37.311 53.1887 37.3356C52.1162 37.5166 51.2813 38.6872 50.5489 39.4228Z" fill="white"/>
</svg>
