<svg width="40" height="40" viewBox="0 0 40 40" fill="none" xmlns="http://www.w3.org/2000/svg">
<path d="M24.5041 1.7079C24.6458 1.84273 24.7874 1.97763 24.9289 2.11259C26.2305 3.30351 27.7882 3.79235 29.5303 3.8748C31.4616 3.97101 33.1075 4.69981 34.4305 6.11565C35.5092 7.3292 36.0089 8.80394 36.0869 10.4113C36.1821 12.3188 36.7544 13.8592 38.086 15.2669C39.3533 16.6224 40.0206 18.3349 39.9995 20.1931C39.8976 21.8393 39.3394 23.3291 38.1965 24.535C36.9188 25.8846 36.1814 27.4596 36.1092 29.3252C36.0283 31.335 35.3349 33.0462 33.8582 34.4284C32.624 35.5273 31.127 36.0091 29.496 36.1022C27.6081 36.2108 25.8643 36.8065 24.5502 38.2276C23.4087 39.4237 21.6348 39.9581 20.0256 40C18.0509 39.9695 16.4811 39.2032 15.0711 37.8587C13.7696 36.6679 12.2117 36.1788 10.4697 36.0965C8.41231 35.9959 6.85015 35.1699 5.44862 33.6888C4.49784 32.5949 3.9819 31.1953 3.92522 29.7519C3.84463 27.7721 3.29965 26.1692 1.914 24.7044C0.646684 23.349 -0.0206127 21.6364 0.000485276 19.7782C0.102357 18.132 0.660641 16.6422 1.80353 15.4363C3.08124 14.0867 3.81865 12.5117 3.89079 10.6462C3.97241 8.61848 4.67562 6.92872 6.15622 5.53231C6.50824 5.21547 6.89251 4.96858 7.30657 4.74053C7.37286 4.70292 7.43916 4.6653 7.50746 4.62655C8.36387 4.16757 9.27386 3.93524 10.2421 3.89715C12.254 3.81511 13.8548 3.24335 15.3323 1.83158C17.9024 -0.580923 21.873 -0.597857 24.5041 1.7079ZM25.5489 14.4228C25.4511 14.5206 25.3534 14.6184 25.2556 14.7162C24.9927 14.9793 24.7301 15.2426 24.4675 15.506C24.1921 15.7822 23.9165 16.0581 23.6409 16.334C23.1201 16.8555 22.5996 17.3771 22.0791 17.8988C21.4861 18.4933 20.8929 19.0874 20.2997 19.6816C19.0803 20.9029 17.8612 22.1244 16.6424 23.3461C16.315 23.0702 15.9966 22.7919 15.6961 22.4864C15.6289 22.4183 15.5616 22.3502 15.4924 22.2801C15.4216 22.2081 15.3509 22.1361 15.278 22.0619C15.1644 21.9471 15.0508 21.8324 14.9371 21.7176C14.6592 21.4369 14.3816 21.1559 14.1047 20.8742C13.9485 20.7153 13.7919 20.5568 13.635 20.3986C13.4878 20.2503 13.3411 20.1014 13.195 19.952C12.6978 19.4523 12.2945 19.1218 11.565 19.0841C11.0241 19.1513 10.6267 19.3675 10.2394 19.7551C9.89644 20.2877 9.79975 20.7201 9.93258 21.3416C10.1227 21.8422 10.4806 22.2036 10.852 22.5757C10.903 22.6274 10.9539 22.679 11.0063 22.7322C11.1738 22.9018 11.3418 23.0707 11.51 23.2395C11.6273 23.3577 11.7446 23.4758 11.8619 23.594C12.1075 23.8411 12.3534 24.0879 12.5996 24.3345C12.9143 24.6499 13.2277 24.9667 13.5407 25.2837C13.7824 25.5281 14.025 25.7715 14.2679 26.0146C14.3838 26.131 14.4994 26.2477 14.6146 26.3647C14.7761 26.5285 14.9388 26.691 15.1018 26.8532C15.1488 26.9013 15.1957 26.9495 15.244 26.9991C15.6555 27.4037 16.0528 27.5744 16.6321 27.6492C17.6305 27.5928 18.3208 26.7238 18.9742 26.0638C19.0915 25.9468 19.2089 25.8299 19.3264 25.7131C19.6437 25.397 19.9597 25.0797 20.2755 24.762C20.6067 24.4292 20.939 24.0973 21.2711 23.7653C21.8285 23.2079 22.385 22.6496 22.941 22.0908C23.5832 21.4454 24.2268 20.8013 24.8711 20.1579C25.4918 19.538 26.1115 18.9171 26.7309 18.2958C26.9941 18.0318 27.2576 17.7682 27.5214 17.5048C27.832 17.1945 28.1418 16.8834 28.451 16.5717C28.5644 16.4577 28.6781 16.3439 28.7921 16.2304C28.948 16.0751 29.1029 15.9188 29.2575 15.7622C29.3025 15.7178 29.3475 15.6734 29.3939 15.6277C29.8357 15.1759 30.1436 14.6468 30.1547 14.0024C30.0731 13.4706 29.8994 13.0841 29.4958 12.7242C29.102 12.4405 28.6743 12.311 28.1887 12.3356C27.1162 12.5166 26.2813 13.6872 25.5489 14.4228Z" fill="#19CA77"/>
</svg>
