<svg width="20" height="20" viewBox="0 0 20 20" fill="none" xmlns="http://www.w3.org/2000/svg">
<path d="M14.1216 2.64429C14.611 2.1549 14.8557 1.91021 15.1268 1.79319C15.5173 1.6246 15.9601 1.6246 16.3507 1.79319C16.6217 1.91021 16.8664 2.1549 17.3558 2.64429C17.8452 3.13368 18.0899 3.37838 18.2069 3.64946C18.3755 4.04 18.3755 4.48278 18.2069 4.87333C18.0899 5.14441 17.8452 5.3891 17.3558 5.87849L13.1712 10.0632C12.1402 11.0942 11.6247 11.6097 10.979 11.9151C10.3333 12.2205 9.60783 12.2921 8.15686 12.4353L7.5 12.5001L7.56482 11.8433C7.70798 10.3923 7.77958 9.66675 8.08501 9.02108C8.39042 8.37542 8.90592 7.85994 9.93692 6.82895L14.1216 2.64429Z" stroke="white" stroke-width="1.2" stroke-linejoin="round"/>
<path d="M5.00033 12.5H3.12533C2.31991 12.5 1.66699 13.1529 1.66699 13.9583C1.66699 14.7638 2.31991 15.4167 3.12533 15.4167H11.042C11.8474 15.4167 12.5003 16.0696 12.5003 16.875C12.5003 17.6804 11.8474 18.3333 11.042 18.3333H9.16699" stroke="white" stroke-width="1.2" stroke-linecap="round" stroke-linejoin="round"/>
</svg>
