<svg width="22" height="18" viewBox="0 0 22 18" fill="none" xmlns="http://www.w3.org/2000/svg">
<path d="M1.14244 0.0526848C0.875256 0.13706 0.758069 0.207373 0.523694 0.422997C0.265881 0.66206 0.106506 0.96206 0.0408814 1.35112C0.00338137 1.56206 -0.00599363 3.36206 0.00338137 7.323L0.0174439 12.9949L0.125256 13.2574C0.275256 13.6324 0.547131 13.923 0.922131 14.1058L1.23619 14.2605H10.7753H20.3143L20.5956 14.1292C20.9518 13.9652 21.2799 13.6136 21.4253 13.2621L21.5331 12.9949L21.5471 7.323C21.5612 1.41675 21.5565 1.24331 21.3643 0.86831C21.2143 0.577685 20.9143 0.282372 20.6237 0.141747L20.3612 0.0104971L10.8456 0.00112247C3.28932 -0.00356483 1.29244 0.00580978 1.14244 0.0526848ZM20.2581 1.03237C20.3331 1.07925 20.4315 1.18237 20.4784 1.26675C20.5674 1.41206 20.5721 1.548 20.5721 7.12612C20.5721 13.4308 20.5909 13.0136 20.2768 13.2058C20.1315 13.2996 19.9674 13.2996 10.7846 13.2996C0.462757 13.2996 1.26432 13.323 1.07213 13.0042C0.983069 12.8589 0.978381 12.723 0.978381 7.14487C0.978381 1.03706 0.969006 1.30894 1.20338 1.098C1.25494 1.05112 1.35807 0.994872 1.42838 0.971435C1.50338 0.947997 5.74088 0.933935 10.8456 0.938622C19.7096 0.947997 20.1362 0.952685 20.2581 1.03237Z" fill="#6B6B6B"/>
<path d="M8.92369 3.14643C8.61431 3.24487 8.45025 3.34799 8.25337 3.57299C7.9065 3.96674 7.91587 3.86831 7.91587 7.13549C7.91587 10.4777 7.90181 10.3371 8.31431 10.7496C8.68931 11.1292 9.31275 11.2652 9.77212 11.073C10.0862 10.9417 14.619 8.31674 14.8065 8.15268C15.4018 7.64643 15.4018 6.62456 14.8018 6.10893C14.5206 5.86518 9.87525 3.19331 9.62212 3.13237C9.369 3.06674 9.16275 3.07143 8.92369 3.14643ZM11.7549 5.40581C13.0346 6.14174 14.1268 6.78862 14.1877 6.84487C14.3143 6.96206 14.3284 7.24331 14.2112 7.38862C14.1409 7.46831 10.1143 9.82612 9.54712 10.1167C9.31275 10.2339 9.16744 10.2292 9.00806 10.0933L8.87681 9.98081L8.86275 7.15893L8.85337 4.34174L8.98931 4.20112C9.08306 4.10737 9.17212 4.06518 9.27994 4.06518C9.39244 4.06518 10.0206 4.40268 11.7549 5.40581Z" fill="#6B6B6B"/>
<path d="M4.17057 15.0386C3.72526 15.1277 3.30339 15.5167 3.17682 15.9621C3.10651 16.2105 3.14401 16.6511 3.25182 16.8667C3.36432 17.0871 3.6362 17.3636 3.8612 17.4855L4.0487 17.5886H10.7753H17.5018L17.6893 17.4855C17.9143 17.3636 18.1862 17.0871 18.2987 16.8621C18.3456 16.773 18.3924 16.5574 18.4065 16.3886C18.4253 16.1261 18.4112 16.0371 18.3128 15.8261C18.1487 15.4699 17.9846 15.2917 17.6753 15.1417L17.4081 15.0105L10.8924 15.0011C7.30651 15.0011 4.28307 15.0152 4.17057 15.0386ZM17.3284 16.0511C17.3846 16.098 17.4409 16.1917 17.4596 16.2621C17.4831 16.3652 17.4596 16.4167 17.3471 16.5339L17.2065 16.6746H10.7753H4.34401L4.20339 16.5339C4.09089 16.4167 4.06745 16.3652 4.09089 16.2621C4.10964 16.1917 4.16589 16.098 4.22214 16.0511C4.3112 15.9761 4.69089 15.9714 10.7753 15.9714C16.8596 15.9714 17.2393 15.9761 17.3284 16.0511Z" fill="#6B6B6B"/>
</svg>
