<svg width="21" height="21" viewBox="0 0 21 21" fill="none" xmlns="http://www.w3.org/2000/svg">
<path d="M14.6858 14.7208C14.7836 14.7964 14.876 14.8753 14.9677 14.9583C14.9977 14.9847 15.0278 15.0111 15.0587 15.0383C15.4324 15.3865 15.6833 15.8354 15.8264 16.3243C15.8264 16.3758 15.8264 16.4274 15.8264 16.4804C15.8717 16.4802 15.9171 16.4799 15.9638 16.4796C16.3916 16.4773 16.8194 16.4755 17.2472 16.4744C17.4672 16.4738 17.6871 16.4729 17.907 16.4716C18.1194 16.4703 18.3317 16.4696 18.544 16.4693C18.6249 16.4691 18.7058 16.4687 18.7868 16.4681C18.9003 16.4672 19.0138 16.4671 19.1273 16.4671C19.1606 16.4667 19.194 16.4663 19.2283 16.4659C19.4596 16.4671 19.6562 16.4987 19.8363 16.6574C20.0165 16.9004 20.0364 17.0764 20.0025 17.3781C19.9383 17.537 19.8537 17.6226 19.7091 17.7122C19.5358 17.7839 19.3918 17.7856 19.2062 17.7853C19.17 17.7857 19.1338 17.7861 19.0965 17.7865C18.9774 17.7877 18.8583 17.788 18.7392 17.7884C18.6564 17.789 18.5736 17.7897 18.4908 17.7905C18.2733 17.7923 18.0558 17.7935 17.8383 17.7945C17.6162 17.7957 17.3941 17.7975 17.1719 17.7993C16.7364 17.8026 16.3009 17.8053 15.8654 17.8074C15.8548 17.8396 15.8443 17.8718 15.8334 17.9049C15.8195 17.9471 15.8056 17.9893 15.7912 18.0328C15.7706 18.0955 15.7706 18.0955 15.7495 18.1595C15.4945 18.8958 14.9418 19.4401 14.2652 19.7979C13.8421 19.9837 13.4711 20.0399 13.0138 20.0419C12.9456 20.0431 12.9456 20.0431 12.8761 20.0443C12.4474 20.0462 12.0653 19.97 11.6844 19.7711C11.658 19.7576 11.6316 19.744 11.6043 19.7301C11.3757 19.6092 11.1779 19.4649 10.9867 19.2905C10.963 19.2704 10.9392 19.2502 10.9148 19.2294C10.512 18.8642 10.2865 18.3559 10.1281 17.8465C10.1281 17.8207 10.1281 17.7949 10.1281 17.7684C10.0785 17.7685 10.0288 17.7687 9.97768 17.7688C8.79939 17.7722 7.6211 17.7748 6.4428 17.7764C6.29776 17.7766 6.15271 17.7768 6.00767 17.777C5.9788 17.777 5.94992 17.7771 5.92017 17.7771C5.45269 17.7778 4.98521 17.779 4.51772 17.7804C4.03801 17.7819 3.5583 17.7828 3.07858 17.7831C2.78259 17.7833 2.48661 17.784 2.19062 17.7852C1.96362 17.7862 1.73663 17.7863 1.50962 17.7861C1.41653 17.7861 1.32343 17.7864 1.23034 17.787C1.10326 17.7878 0.976228 17.7876 0.849153 17.7872C0.812287 17.7876 0.775421 17.7881 0.737438 17.7886C0.503504 17.7864 0.367677 17.7479 0.175632 17.6123C0.031757 17.4647 0.0076648 17.3437 0 17.1439C0.0071696 16.9442 0.0362985 16.8262 0.175632 16.6756C0.344761 16.5191 0.469735 16.4758 0.69605 16.475C0.729806 16.4748 0.763561 16.4746 0.79834 16.4744C0.835243 16.4743 0.872145 16.4743 0.910167 16.4743C0.949507 16.4741 0.988848 16.4739 1.02938 16.4737C1.16158 16.4731 1.29378 16.4727 1.42598 16.4724C1.52059 16.472 1.61521 16.4717 1.70982 16.4713C1.91371 16.4704 2.11761 16.4697 2.3215 16.4691C2.6163 16.4682 2.91109 16.4671 3.20589 16.4659C3.68417 16.4641 4.16246 16.4624 4.64074 16.4608C5.10536 16.4593 5.56997 16.4577 6.03459 16.4559C6.06323 16.4558 6.09187 16.4557 6.12137 16.4556C6.26504 16.4551 6.4087 16.4545 6.55237 16.454C7.74427 16.4496 8.93618 16.4454 10.1281 16.4414C10.1386 16.4092 10.1492 16.377 10.1601 16.3439C10.174 16.3017 10.188 16.2595 10.2023 16.216C10.2161 16.1742 10.2299 16.1323 10.2441 16.0892C10.4928 15.3695 11.0199 14.851 11.6795 14.4973C12.658 14.0374 13.7899 14.1034 14.6858 14.7208ZM11.9234 15.895C11.888 15.9244 11.888 15.9244 11.8519 15.9543C11.5354 16.2378 11.3664 16.6461 11.338 17.0659C11.3329 17.5789 11.5188 17.9781 11.871 18.3427C12.2009 18.6485 12.6313 18.8054 13.0794 18.7929C13.5334 18.7453 13.96 18.5395 14.2652 18.1977C14.5776 17.7457 14.6669 17.331 14.6164 16.7927C14.5285 16.3564 14.236 15.9909 13.8749 15.7389C13.2299 15.3931 12.4895 15.3879 11.9234 15.895Z" fill="white"/>
<path d="M14.0701 0.205351C14.1149 0.223866 14.1598 0.24238 14.206 0.261456C14.9472 0.598054 15.4356 1.18074 15.7483 1.92264C15.7699 1.98423 15.7909 2.04606 15.8111 2.10809C15.8214 2.13928 15.8316 2.17046 15.8422 2.20259C15.8499 2.22612 15.8575 2.24965 15.8654 2.2739C15.9342 2.27411 15.9342 2.27411 16.0043 2.27433C16.4367 2.27577 16.8691 2.27803 17.3015 2.28108C17.5238 2.28262 17.7461 2.28387 17.9684 2.28448C18.183 2.28507 18.3976 2.28641 18.6122 2.28828C18.694 2.28885 18.7758 2.28916 18.8576 2.2892C18.9724 2.28929 19.0871 2.29034 19.2018 2.29162C19.2355 2.29143 19.2692 2.29123 19.3039 2.29103C19.5764 2.29572 19.7472 2.36728 19.9415 2.56662C20.0316 2.76842 20.0321 2.95406 20.0025 3.17157C19.9185 3.34575 19.8111 3.45398 19.6512 3.56186C19.5445 3.5954 19.4486 3.60574 19.3371 3.60559C19.306 3.60564 19.2749 3.60569 19.2429 3.60575C19.2091 3.60561 19.1754 3.60547 19.1406 3.60532C19.0869 3.60533 19.0869 3.60533 19.0321 3.60534C18.9138 3.60531 18.7956 3.60501 18.6773 3.60471C18.5953 3.60463 18.5133 3.60458 18.4312 3.60454C18.2154 3.60439 17.9995 3.60401 17.7837 3.60357C17.5634 3.60317 17.3431 3.603 17.1229 3.6028C16.6907 3.60238 16.2585 3.60172 15.8264 3.60089C15.8207 3.64365 15.815 3.6864 15.8091 3.73045C15.7159 4.3464 15.279 4.88912 14.8116 5.27915C14.124 5.78477 13.338 5.955 12.4986 5.85396C11.7624 5.73265 11.0796 5.32124 10.6308 4.72619C10.5437 4.59492 10.4646 4.46112 10.3891 4.32293C10.37 4.28824 10.37 4.28824 10.3506 4.25285C10.278 4.11386 10.2264 3.97614 10.1823 3.82554C10.1721 3.79069 10.1619 3.75584 10.1513 3.71994C10.1436 3.69353 10.136 3.66713 10.1281 3.63992C10.0543 3.63978 10.0543 3.63978 9.97892 3.63964C8.81016 3.6374 7.6414 3.63456 6.47265 3.63099C6.32877 3.63055 6.18491 3.63011 6.04103 3.62968C6.01239 3.62959 5.98375 3.62951 5.95424 3.62942C5.49055 3.62804 5.02685 3.62707 4.56315 3.62625C4.08732 3.6254 3.61148 3.62411 3.13565 3.62241C2.84206 3.62138 2.54848 3.62069 2.25489 3.62043C2.02972 3.6202 1.80456 3.61936 1.57939 3.61829C1.48705 3.61795 1.39471 3.6178 1.30237 3.61787C1.17633 3.61794 1.0503 3.61729 0.92426 3.61646C0.887698 3.61665 0.851137 3.61683 0.813467 3.61703C0.574609 3.61444 0.372113 3.58814 0.185707 3.42389C0.0055006 3.18092 -0.0144202 3.0049 0.0195281 2.70322C0.0834525 2.54506 0.16814 2.45949 0.311132 2.36893C0.493547 2.29475 0.649465 2.29705 0.844472 2.29885C0.884198 2.29875 0.923923 2.29865 0.964853 2.29855C1.09789 2.29835 1.23092 2.299 1.36396 2.29964C1.45935 2.29967 1.55475 2.29965 1.65015 2.29959C1.85549 2.29956 2.06082 2.29989 2.26617 2.30055C2.56305 2.3015 2.85994 2.30181 3.15682 2.30195C3.63853 2.30221 4.12023 2.30299 4.60194 2.3041C5.0698 2.30517 5.53767 2.306 6.00554 2.3065C6.03439 2.30653 6.06324 2.30656 6.09297 2.30659C6.2377 2.30674 6.38244 2.30689 6.52718 2.30704C7.72749 2.30825 8.92779 2.31032 10.1281 2.31293C10.1359 2.28365 10.1436 2.25437 10.1516 2.22421C10.1671 2.16644 10.1671 2.16644 10.1829 2.1075C10.193 2.06937 10.2032 2.03124 10.2137 1.99195C10.3289 1.59577 10.557 1.25133 10.8306 0.946906C10.861 0.911135 10.861 0.911135 10.8919 0.874641C11.6426 0.0485468 13.0529 -0.232817 14.0701 0.205351ZM11.6893 1.92264C11.6095 2.03469 11.5495 2.14823 11.4941 2.2739C11.4822 2.29865 11.4703 2.32341 11.458 2.34891C11.2859 2.74361 11.3177 3.16214 11.4551 3.56186C11.6351 3.96331 11.9335 4.27386 12.3311 4.4606C12.7536 4.62146 13.2002 4.64867 13.6217 4.46945C14.0351 4.26109 14.3671 3.96132 14.5384 3.52284C14.5523 3.48772 14.5662 3.4526 14.5805 3.41642C14.691 3.02411 14.6549 2.55373 14.4603 2.19584C14.1975 1.7638 13.8479 1.45181 13.3504 1.32744C12.7026 1.20452 12.1307 1.44923 11.6893 1.92264Z" fill="white"/>
<path d="M8.76206 7.66004C9.3192 8.11359 9.78065 8.68799 9.89391 9.41636C9.96871 9.41614 9.96871 9.41614 10.045 9.41592C11.2287 9.41254 12.4124 9.40997 13.5961 9.40839C13.7418 9.40819 13.8875 9.40799 14.0331 9.40778C14.0621 9.40774 14.0911 9.4077 14.121 9.40766C14.5907 9.40698 15.0603 9.40575 15.53 9.40431C16.0119 9.40285 16.4937 9.40199 16.9756 9.40167C17.273 9.40146 17.5703 9.40078 17.8677 9.39951C18.0957 9.39859 18.3237 9.39849 18.5517 9.3987C18.6452 9.39866 18.7388 9.39835 18.8323 9.39775C18.9599 9.39697 19.0875 9.39716 19.2151 9.39758C19.2522 9.39713 19.2893 9.39667 19.3276 9.39621C19.5467 9.39819 19.6729 9.42565 19.8464 9.57248C19.988 9.72154 20.0146 9.84111 20.022 10.0408C20.0146 10.2405 19.988 10.3601 19.8464 10.5092C19.6389 10.6847 19.4745 10.6872 19.2151 10.6841C19.1553 10.6843 19.1553 10.6843 19.0942 10.6845C18.9606 10.6847 18.8271 10.6839 18.6935 10.683C18.5977 10.683 18.5019 10.683 18.4062 10.6831C18.2 10.6831 17.9938 10.6827 17.7876 10.6818C17.4896 10.6805 17.1915 10.6801 16.8934 10.6799C16.4097 10.6796 15.9261 10.6785 15.4424 10.6771C14.9727 10.6756 14.5029 10.6745 14.0331 10.6739C14.0042 10.6738 13.9752 10.6738 13.9454 10.6737C13.8 10.6735 13.6547 10.6733 13.5094 10.6731C12.3042 10.6715 11.0991 10.6688 9.89391 10.6653C9.88904 10.6888 9.88418 10.7123 9.87917 10.7366C9.8692 10.7833 9.8692 10.7833 9.85903 10.831C9.85255 10.8618 9.84608 10.8925 9.8394 10.9242C9.80251 11.0688 9.74031 11.1967 9.67193 11.3288C9.65807 11.3559 9.6442 11.383 9.62992 11.4109C9.51794 11.6243 9.3931 11.8136 9.23041 11.9923C9.19079 12.0366 9.19079 12.0366 9.15037 12.0818C8.64806 12.6144 7.93446 12.938 7.2044 12.9759C6.33695 12.9923 5.58736 12.7222 4.95061 12.1237C4.60107 11.7707 4.35208 11.3686 4.21139 10.8905C4.20107 10.8555 4.19075 10.8206 4.18011 10.7846C4.17236 10.7581 4.1646 10.7316 4.15661 10.7043C4.11019 10.7042 4.06377 10.704 4.01595 10.7039C3.57835 10.7024 3.14076 10.7002 2.70318 10.6971C2.47821 10.6956 2.25325 10.6943 2.02828 10.6937C1.81115 10.6932 1.59403 10.6918 1.3769 10.6899C1.29409 10.6894 1.21127 10.6891 1.12846 10.689C1.0124 10.6889 0.896388 10.6879 0.780337 10.6866C0.729047 10.6869 0.729047 10.6869 0.67672 10.6872C0.464736 10.6836 0.344282 10.6492 0.175632 10.5092C0.0340203 10.3601 0.00741537 10.2405 0 10.0408C0.00741537 9.84111 0.0340203 9.72154 0.175632 9.57248C0.377427 9.40487 0.529332 9.39361 0.780337 9.39505C0.816916 9.39465 0.853495 9.39425 0.891182 9.39383C1.01156 9.39268 1.13191 9.39262 1.25229 9.39257C1.33596 9.39199 1.41963 9.39134 1.5033 9.39062C1.72312 9.38892 1.94294 9.38813 2.16276 9.38755C2.38724 9.38678 2.61171 9.38514 2.83617 9.38358C3.27632 9.38064 3.71646 9.37868 4.15661 9.37733C4.1752 9.31856 4.1752 9.31856 4.19416 9.25861C4.2111 9.20615 4.22806 9.15368 4.24504 9.10123C4.25312 9.07553 4.2612 9.04984 4.26953 9.02336C4.50151 8.31187 5.05783 7.74793 5.71534 7.41367C5.95612 7.29544 6.195 7.20409 6.45934 7.15266C6.49546 7.14557 6.53158 7.13848 6.5688 7.13117C7.34208 7.02245 8.13134 7.19636 8.76206 7.66004ZM5.76413 8.97728C5.43085 9.38069 5.35997 9.84756 5.40555 10.3531C5.49822 10.7841 5.75027 11.1525 6.10807 11.4068C6.5129 11.6499 6.93108 11.7567 7.40076 11.6532C7.89755 11.5013 8.2735 11.2079 8.52301 10.7482C8.71463 10.3294 8.72226 9.9055 8.58155 9.47002C8.43373 9.09675 8.14688 8.75672 7.78496 8.57692C7.04724 8.26319 6.32867 8.38482 5.76413 8.97728Z" fill="white"/>
</svg>
