<svg width="20" height="20" viewBox="0 0 20 20" fill="none" xmlns="http://www.w3.org/2000/svg">
<path d="M0 20V17.5H3.4375L2.9375 17.0625C1.85417 16.1042 1.09375 15.0104 0.65625 13.7812C0.21875 12.5521 0 11.3125 0 10.0625C0 7.75 0.692708 5.69271 2.07812 3.89062C3.46354 2.08854 5.27083 0.895833 7.5 0.3125V2.9375C6 3.47917 4.79167 4.40104 3.875 5.70312C2.95833 7.00521 2.5 8.45833 2.5 10.0625C2.5 11 2.67708 11.9115 3.03125 12.7969C3.38542 13.6823 3.9375 14.5 4.6875 15.25L5 15.5625V12.5H7.5V20H0ZM12.5 19.6875V17.0625C14 16.5208 15.2083 15.599 16.125 14.2969C17.0417 12.9948 17.5 11.5417 17.5 9.9375C17.5 9 17.3229 8.08854 16.9688 7.20312C16.6146 6.31771 16.0625 5.5 15.3125 4.75L15 4.4375V7.5H12.5V0H20V2.5H16.5625L17.0625 2.9375C18.0833 3.95833 18.8281 5.06771 19.2969 6.26562C19.7656 7.46354 20 8.6875 20 9.9375C20 12.25 19.3073 14.3073 17.9219 16.1094C16.5365 17.9115 14.7292 19.1042 12.5 19.6875Z" fill="#B6A0FF"/>
</svg>
