<svg width="24" height="24" viewBox="0 0 24 24" fill="none" xmlns="http://www.w3.org/2000/svg">
<path d="M19.7838 3.92868C19.6479 3.76853 19.4787 3.6399 19.288 3.55173C19.0973 3.46355 18.8897 3.41795 18.6796 3.41809H17.2823V2.98098C17.2823 2.44008 16.8421 2 16.3013 2H6.825C6.28407 2 5.84406 2.44008 5.84406 2.98094V3.41805H4.44652C4.23645 3.41792 4.02886 3.46352 3.83818 3.55169C3.6475 3.63987 3.4783 3.76849 3.34234 3.92864C3.06922 4.24977 2.95117 4.67157 3.01855 5.08583C3.38574 7.34364 4.80664 9.3383 6.82325 10.4324C7.0075 10.8754 7.21618 11.295 7.44856 11.686C8.19083 12.935 9.1136 13.7982 10.1293 14.2156C10.2322 15.2564 9.5397 16.2424 8.49673 16.4774C8.4945 16.4779 8.49294 16.4787 8.49075 16.4792C8.28719 16.5278 8.13567 16.7105 8.13567 16.9289V19.0525H7.27684C6.51114 19.0525 5.8882 19.6754 5.8882 20.4411V21.5371C5.8882 21.7928 6.09543 22 6.3511 22H16.8194C17.075 22 17.2823 21.7928 17.2823 21.5371V20.4411C17.2823 19.6754 16.6593 19.0525 15.8936 19.0525H15.0347V16.9289C15.0347 16.7101 14.8826 16.5271 14.6785 16.4789C14.6766 16.4785 14.6748 16.4778 14.6729 16.4774C13.622 16.2408 12.9282 15.2449 13.0419 14.1964C14.0399 13.7721 14.9465 12.9166 15.6778 11.686C15.9102 11.2951 16.1188 10.8754 16.3031 10.4323C18.3196 9.33818 19.7405 7.34357 20.1076 5.08583C20.175 4.67157 20.057 4.24981 19.7838 3.92868ZM3.9323 4.93719C3.90824 4.78926 3.94914 4.64407 4.0475 4.52836C4.09662 4.47048 4.15775 4.42398 4.22665 4.3921C4.29555 4.36022 4.37057 4.34372 4.44648 4.34375H5.84403V5.1954C5.84403 6.53079 6.01446 7.82431 6.33746 9.00724C5.06809 8.00415 4.1941 6.547 3.9323 4.93719ZM15.8936 19.9783C16.1488 19.9783 16.3565 20.1859 16.3565 20.4412V21.0743H6.81395V20.4412C6.81395 20.1859 7.02161 19.9783 7.27684 19.9783H15.8936ZM14.1089 17.3918V19.0525H9.06153V17.3918H14.1089ZM10.2755 16.4661C10.3909 16.3389 10.4955 16.2022 10.5881 16.0575C10.8965 15.5755 11.0584 15.0279 11.0657 14.4687C11.2301 14.491 11.3961 14.503 11.5634 14.503C11.7445 14.5029 11.9254 14.4893 12.1045 14.4626C12.1151 15.2141 12.4076 15.9255 12.8994 16.466H10.2755V16.4661ZM16.3564 5.19544C16.3564 7.47587 15.8328 9.61298 14.8819 11.213C13.976 12.7376 12.7974 13.5773 11.5633 13.5773C10.3291 13.5773 9.1504 12.7376 8.24434 11.2131C7.29348 9.61302 6.76981 7.47591 6.76981 5.19551V2.98094C6.76981 2.95047 6.79457 2.92574 6.82496 2.92574H16.3012C16.3317 2.92574 16.3564 2.95051 16.3564 2.98094V5.19544ZM19.1939 4.93719C18.9321 6.54688 18.0582 8.004 16.7889 9.00716C17.1118 7.82423 17.2823 6.53079 17.2823 5.19544V4.34379H18.6796C18.8335 4.34379 18.9789 4.4111 19.0786 4.5284C19.177 4.64407 19.2179 4.78926 19.1939 4.93719Z" fill="#EABB00"/>
<path d="M14.3731 6.75228C14.3464 6.67015 14.2972 6.59714 14.2312 6.54148C14.1652 6.48582 14.0849 6.44972 13.9994 6.43728L12.6026 6.23431L11.978 4.9686C11.9397 4.89118 11.8806 4.826 11.8072 4.78042C11.7339 4.73485 11.6492 4.71069 11.5629 4.71069C11.4765 4.71069 11.3919 4.73485 11.3185 4.78042C11.2452 4.826 11.1861 4.89118 11.1478 4.9686L10.5232 6.23431L9.12636 6.43728C9.04087 6.44968 8.96056 6.48576 8.89452 6.54144C8.82847 6.59711 8.77932 6.67016 8.75263 6.75231C8.72594 6.83447 8.72277 6.92245 8.74348 7.00631C8.7642 7.09018 8.80796 7.16657 8.86983 7.22685L9.88058 8.21205L9.64195 9.60318C9.62732 9.68831 9.63681 9.77584 9.66934 9.85586C9.70187 9.93588 9.75615 10.0052 9.82603 10.056C9.89591 10.1068 9.97861 10.137 10.0648 10.1432C10.1509 10.1494 10.2371 10.1314 10.3135 10.0912L11.5629 9.43439L12.8122 10.0912C12.8886 10.1314 12.9748 10.1494 13.0609 10.1431C13.1471 10.1369 13.2298 10.1067 13.2996 10.0559C13.3695 10.0051 13.4238 9.93581 13.4563 9.8558C13.4889 9.77579 13.4984 9.68827 13.4837 9.60314L13.2451 8.21201L14.2559 7.22681C14.3177 7.16653 14.3615 7.09014 14.3822 7.00628C14.4029 6.92242 14.3998 6.83443 14.3731 6.75228ZM12.4248 7.71896C12.371 7.77134 12.3308 7.83601 12.3076 7.90739C12.2844 7.97877 12.2789 8.05471 12.2916 8.12869L12.4128 8.83533L11.7782 8.50169C11.7118 8.46681 11.6379 8.44858 11.5628 8.44858C11.4878 8.44858 11.4139 8.46681 11.3475 8.50169L10.7129 8.83533L10.8341 8.12869C10.8467 8.05471 10.8413 7.97877 10.8181 7.90739C10.7949 7.83601 10.7547 7.77134 10.7009 7.71896L10.1876 7.21857L10.8971 7.11544C10.9713 7.10465 11.0419 7.07597 11.1026 7.03186C11.1633 6.98775 11.2124 6.92953 11.2456 6.86224L11.5629 6.21935L11.8802 6.86224C11.9134 6.92953 11.9625 6.98774 12.0232 7.03185C12.0839 7.07596 12.1544 7.10465 12.2287 7.11544L12.9381 7.21857L12.4248 7.71896Z" fill="#EABB00"/>
</svg>
