<svg width="19" height="15" viewBox="0 0 19 15" fill="none" xmlns="http://www.w3.org/2000/svg">
<path d="M18.5982 9.55395L17.027 6.5337C16.8678 6.23067 16.6317 5.97479 16.3425 5.79171C16.0532 5.60862 15.721 5.50475 15.379 5.4905C14.9622 5.47437 14.0919 5.48825 13.8706 5.4905C13.1393 5.4905 12.4732 6.05081 11.9868 6.45822C11.8603 6.57137 11.7263 6.6757 11.5855 6.77047C11.2804 6.65169 10.9914 6.49521 10.7252 6.30467C10.1575 5.25599 9.18525 2.81477 8.67558 1.78866C8.40623 1.25255 7.52464 0 5.16116 0C2.79767 0 1.91608 1.25255 1.64673 1.79124C0.992555 3.0996 0 6.99401 0 7.41916C0 8.27527 0.325798 8.70945 0.967717 8.70945C1.17751 8.7057 1.38284 8.64829 1.56415 8.54268L0.977394 10.8894C0.960108 10.9591 0.966586 11.0326 0.995802 11.0982C1.02502 11.1638 1.0753 11.2178 1.13868 11.2516C1.60255 11.5008 2.08848 11.7065 2.59026 11.8661L2.59671 13.7093C2.59734 13.9906 2.70294 14.2615 2.89283 14.469C3.08272 14.6765 3.34322 14.8056 3.62333 14.8311C3.90344 14.8566 4.18298 14.7767 4.40723 14.6069C4.63147 14.4371 4.78426 14.1897 4.83568 13.9132L5.05535 12.2636H5.26728L5.49018 13.9345C5.54586 14.2087 5.70136 14.4524 5.92654 14.6185C6.15173 14.7845 6.43055 14.8611 6.70894 14.8332C6.98734 14.8054 7.24549 14.6752 7.43333 14.4678C7.62117 14.2604 7.72533 13.9907 7.72561 13.7109L7.73432 11.8661C8.23609 11.7065 8.72202 11.5008 9.18589 11.2516C9.24686 11.2184 9.29548 11.1664 9.32454 11.1034C9.3536 11.0403 9.36154 10.9696 9.34718 10.9017L8.41527 6.42661C8.5806 6.76743 8.76365 7.09938 8.96364 7.4211C9.06146 7.57081 9.19239 7.69603 9.34632 7.78709C9.50024 7.87815 9.67304 7.9326 9.85136 7.94625C10.4762 8.38688 11.2797 9.03202 11.6126 9.03202C12.0409 8.95294 12.4548 8.80972 12.8403 8.6072C12.3223 13.2468 12.2577 13.7777 12.2577 13.8706C12.2589 14.1065 12.3463 14.3339 12.5034 14.51C12.6604 14.686 12.8764 14.7986 13.1107 14.8266C13.345 14.8546 13.5814 14.796 13.7755 14.6619C13.9696 14.5278 14.1081 14.3274 14.1648 14.0983L14.5158 12.6552L14.8664 14.0971C14.9228 14.3263 15.0611 14.527 15.2552 14.6613C15.4492 14.7957 15.6857 14.8545 15.9201 14.8267C16.1546 14.7989 16.3707 14.6863 16.5279 14.5102C16.6851 14.3341 16.7726 14.1067 16.7738 13.8706C16.7738 13.7516 16.7783 13.8771 16.2899 9.47653L16.9179 10.5088C17.0286 10.688 17.1947 10.8263 17.3911 10.9026C17.5875 10.9789 17.8034 10.989 18.006 10.9314C18.2086 10.8738 18.387 10.7517 18.5139 10.5835C18.6408 10.4154 18.7094 10.2104 18.7092 9.99974C18.7105 9.84415 18.6723 9.69078 18.5982 9.55395ZM4.19989 13.8061C4.17598 13.9239 4.10909 14.0286 4.01224 14.0997C3.91539 14.1709 3.79551 14.2035 3.67595 14.1911C3.5564 14.1788 3.44572 14.1224 3.36547 14.0329C3.28523 13.9434 3.24116 13.8273 3.24185 13.7071L3.23411 12.041C3.62093 12.1311 4.01361 12.1938 4.40924 12.2287L4.19989 13.8061ZM7.08046 13.7093C7.08207 13.8284 7.03969 13.9439 6.96144 14.0337C6.88319 14.1235 6.77456 14.1813 6.65636 14.196C6.53816 14.2107 6.41869 14.1813 6.32083 14.1134C6.22296 14.0455 6.15358 13.9439 6.12597 13.828L5.9134 12.2294C6.30892 12.1944 6.70149 12.1317 7.0882 12.0416L7.08046 13.7093ZM9.50782 7.07175C8.78609 5.81395 8.18814 4.48906 7.72238 3.11573C7.69455 3.03906 7.63871 2.97578 7.5661 2.93863C7.49349 2.90148 7.4095 2.89321 7.33104 2.91549C7.25258 2.93778 7.18548 2.98895 7.14323 3.05872C7.10099 3.12849 7.08674 3.21168 7.10336 3.29153L8.66623 10.7936C7.57971 11.337 6.38172 11.6203 5.16689 11.6211C3.95206 11.622 2.75368 11.3403 1.66641 10.7984L3.53862 3.30379C3.55712 3.22158 3.54272 3.13541 3.4985 3.06368C3.45428 2.99196 3.38375 2.94039 3.302 2.91999C3.22025 2.89959 3.13376 2.912 3.06103 2.95454C2.9883 2.99709 2.93511 3.0664 2.91283 3.14766L1.95027 6.99982C1.72705 7.64496 1.3419 8.06431 0.967717 8.06431C0.744819 8.06431 0.645145 7.97108 0.645145 7.42432C0.665144 7.05466 1.61931 3.29024 2.22575 2.07962C2.43961 1.64834 3.15766 0.645145 5.16116 0.645145C7.16465 0.645145 7.8827 1.64834 8.09656 2.07898C8.66913 3.22895 9.99361 6.58499 10.4042 6.98434C10.4011 7.0282 10.3884 7.07085 10.3671 7.10933C10.3459 7.14782 10.3165 7.18122 10.281 7.20723C10.2215 7.24956 10.1542 7.27965 10.083 7.29575C10.0118 7.31186 9.93804 7.31366 9.86611 7.30106C9.79418 7.28846 9.72548 7.2617 9.66397 7.22233C9.60247 7.18297 9.54939 7.13179 9.50782 7.07175ZM17.4654 10.1684L16.088 7.90818C15.7896 7.56303 15.4561 7.83689 15.4861 8.10173C16.1638 14.169 16.1286 13.8216 16.1286 13.8706C16.1275 13.9488 16.0981 14.024 16.0457 14.0821C15.9934 14.1402 15.9217 14.1773 15.844 14.1865C15.7663 14.1957 15.6879 14.1764 15.6234 14.1321C15.559 14.0878 15.5128 14.0216 15.4935 13.9458L14.8293 11.2139C14.8123 11.1436 14.7721 11.081 14.7153 11.0362C14.6584 10.9915 14.5881 10.9671 14.5158 10.9671C14.4434 10.9671 14.3731 10.9915 14.3163 11.0362C14.2594 11.081 14.2192 11.1436 14.2022 11.2139L13.5377 13.9471C13.5181 14.0227 13.4718 14.0886 13.4073 14.1327C13.3427 14.1767 13.2644 14.1958 13.1869 14.1865C13.1093 14.1771 13.0378 14.14 12.9855 14.0819C12.9333 14.0238 12.904 13.9487 12.9029 13.8706C12.9029 13.8277 12.8987 13.8942 13.5461 8.10011C13.5526 8.04243 13.5434 7.98407 13.5195 7.93119C13.4955 7.8783 13.4578 7.83285 13.4102 7.79962C13.3626 7.7664 13.3069 7.74663 13.249 7.7424C13.1911 7.73817 13.1332 7.74965 13.0813 7.7756C12.6193 8.01962 12.1369 8.22296 11.6397 8.38333C11.2984 8.18783 10.9701 7.9705 10.6568 7.7327C10.8242 7.6063 10.9489 7.43172 11.0142 7.23239C11.1964 7.34042 11.4013 7.40437 11.6126 7.41916C11.8481 7.41916 12.0687 7.23401 12.4019 6.95337C12.8126 6.60789 13.3748 6.13532 13.8706 6.13532C13.9209 6.13532 14.907 6.11952 15.3544 6.13532C15.583 6.14503 15.805 6.21459 15.9982 6.33704C16.1914 6.45949 16.349 6.63053 16.4554 6.83305L18.0318 9.86007C18.068 9.93475 18.0741 10.0205 18.0487 10.0996C18.0233 10.1786 17.9684 10.2448 17.8954 10.2844C17.8225 10.324 17.7371 10.3339 17.657 10.3122C17.5769 10.2904 17.5082 10.2386 17.4654 10.1675V10.1684Z" fill="#EABB00"/>
</svg>
