<svg width="24" height="24" viewBox="0 0 24 24" fill="none" xmlns="http://www.w3.org/2000/svg">
<g clip-path="url(#clip0_895_3837)">
<path d="M13.7344 2.57809C14.2019 3.09707 14.4726 3.71593 14.4522 4.42306C14.3942 4.91331 14.267 5.36683 13.9688 5.76559C13.9319 5.81517 13.9319 5.81517 13.8943 5.86575C13.5605 6.27808 13.1332 6.4933 12.6563 6.70309C13.1391 8.56846 13.7589 10.9087 15.4922 12.0205C16.1312 12.3912 16.77 12.5231 17.4962 12.3545C18.1387 12.1668 18.6571 11.8171 19.1251 11.3437C19.1639 11.3052 19.2026 11.2666 19.2426 11.2269C20.039 10.4255 20.5979 9.47069 21.0469 8.43747C20.8908 8.27923 20.8908 8.27923 20.7278 8.1282C20.3895 7.82397 20.1752 7.39546 20.1435 6.94186C20.1253 6.36008 20.2133 5.89338 20.5912 5.42849C20.948 5.0539 21.3793 4.80476 21.9 4.77169C22.5004 4.76363 22.995 4.8842 23.4484 5.29867C23.9176 5.79694 24.0276 6.28365 24.016 6.94442C23.9942 7.41107 23.7696 7.83165 23.4376 8.15622C23.1052 8.41109 22.7419 8.63751 22.3126 8.62497C22.3077 8.66218 22.3028 8.6994 22.2978 8.73774C22.233 9.21425 22.1456 9.68469 22.054 10.1567C22.0374 10.2427 22.0209 10.3288 22.0043 10.4149C21.9597 10.6466 21.9149 10.8784 21.8701 11.1101C21.8231 11.3532 21.7762 11.5964 21.7294 11.8396C21.6408 12.2995 21.552 12.7594 21.4631 13.2193C21.3621 13.7422 21.2613 14.2652 21.1604 14.7882C21.0119 15.5587 20.8633 16.3292 20.7144 17.0997C20.6984 17.1829 20.6823 17.2662 20.6662 17.3495C20.6443 17.4631 20.6223 17.5767 20.6004 17.6903C20.594 17.7233 20.5876 17.7562 20.5811 17.7902C20.5494 17.954 20.5171 18.1176 20.4844 18.2812C14.8847 18.2812 9.28506 18.2812 3.51568 18.2812C1.68756 8.81798 1.68756 8.81798 1.68756 8.62497C1.63728 8.62303 1.58701 8.6211 1.53521 8.61911C1.1476 8.57083 0.735878 8.34196 0.468808 8.06247C0.159096 7.63745 -0.0272508 7.26429 -0.0204499 6.73532C-0.0200609 6.6962 -0.0196719 6.65708 -0.0192712 6.61678C-0.00524803 6.10286 0.158682 5.71621 0.515683 5.34371C0.986822 4.90875 1.44984 4.76473 2.08288 4.77133C2.59208 4.80144 3.03896 5.03152 3.38971 5.39938C3.81742 5.90934 3.89602 6.48282 3.84381 7.12497C3.72964 7.68472 3.37776 8.03583 2.95318 8.39059C3.31326 9.32968 3.8362 10.3174 4.56085 11.0273C4.64068 11.1093 4.64068 11.1093 4.64068 11.2031C4.66836 11.2151 4.69603 11.2271 4.72455 11.2395C4.83765 11.3021 4.90057 11.3677 4.98639 11.4638C5.536 12.0257 6.32859 12.412 7.11627 12.4365C7.84825 12.4207 8.46211 12.1061 9.00006 11.625C9.03571 11.5932 9.07136 11.5614 9.10809 11.5287C10.3939 10.314 10.9382 8.35934 11.3438 6.70309C11.2951 6.68091 11.2464 6.65874 11.1962 6.63589C10.5308 6.32424 10.0226 5.94648 9.73687 5.24264C9.50065 4.56096 9.49507 3.88906 9.80572 3.22262C10.1471 2.60391 10.6507 2.19347 11.3145 1.95993C12.2076 1.75974 13.0476 1.96434 13.7344 2.57809Z" fill="#080808"/>
<path d="M4.7156 19.1593C4.78087 19.1591 4.84614 19.1589 4.91141 19.1587C5.09032 19.1581 5.26922 19.1581 5.44813 19.1582C5.64126 19.1582 5.83439 19.1577 6.02752 19.1573C6.40574 19.1565 6.78395 19.1562 7.16217 19.1562C7.46968 19.1562 7.77718 19.156 8.08469 19.1557C8.95689 19.1548 9.82909 19.1544 10.7013 19.1545C10.7718 19.1545 10.7718 19.1545 10.8437 19.1545C10.9143 19.1545 10.9143 19.1545 10.9863 19.1545C11.7489 19.1545 12.5115 19.1536 13.2741 19.1523C14.0575 19.151 14.8408 19.1503 15.6242 19.1504C16.0639 19.1504 16.5035 19.1502 16.9432 19.1492C17.3175 19.1483 17.6919 19.1481 18.0663 19.1487C18.2571 19.1491 18.448 19.1491 18.6389 19.1482C18.8139 19.1475 18.9889 19.1476 19.1639 19.1485C19.2567 19.1487 19.3494 19.148 19.4422 19.1472C19.9412 19.1511 20.3633 19.2444 20.7319 19.5972C21.0418 19.9444 21.1649 20.2938 21.1551 20.7581C21.1192 21.1253 20.9832 21.4456 20.7274 21.713C20.2203 22.1285 19.6855 22.132 19.0622 22.1312C18.9988 22.1313 18.9354 22.1314 18.8721 22.1316C18.6986 22.1319 18.5251 22.1319 18.3517 22.1318C18.1643 22.1318 17.977 22.132 17.7896 22.1323C17.4229 22.1327 17.0561 22.1328 16.6893 22.1328C16.3911 22.1328 16.0929 22.1329 15.7947 22.1331C14.9487 22.1335 14.1027 22.1337 13.2567 22.1337C13.2112 22.1337 13.1656 22.1337 13.1186 22.1337C13.0502 22.1337 13.0502 22.1337 12.9803 22.1337C12.2408 22.1336 11.5013 22.1341 10.7617 22.1348C10.0019 22.1354 9.242 22.1357 8.48214 22.1357C8.05574 22.1357 7.62934 22.1358 7.20294 22.1363C6.83991 22.1368 6.47688 22.1369 6.11385 22.1365C5.92875 22.1364 5.74366 22.1364 5.55857 22.1368C5.38886 22.1372 5.21916 22.1371 5.04946 22.1367C4.95955 22.1366 4.86963 22.1369 4.77972 22.1373C4.18727 22.135 3.70361 22.073 3.24298 21.6767C2.96687 21.3889 2.85108 21.0148 2.83594 20.6221C2.85264 20.2054 2.99958 19.884 3.28491 19.5822C3.7183 19.1867 4.14966 19.158 4.7156 19.1593Z" fill="#080808"/>
</g>
<defs>
<clipPath id="clip0_895_3837">
<rect width="24" height="24" fill="white"/>
</clipPath>
</defs>
</svg>
