<svg width="23" height="23" viewBox="0 0 23 23" fill="none" xmlns="http://www.w3.org/2000/svg">
<path d="M11.4902 0C11.6515 0.0596115 11.6777 0.0914151 11.7656 0.237305C11.8186 0.374755 11.86 0.515147 11.9015 0.656433C11.9142 0.698576 11.9269 0.74072 11.94 0.78414C11.9675 0.875345 11.9948 0.966604 12.0219 1.05791C12.0649 1.2026 12.1084 1.34712 12.152 1.49162C12.2852 1.93335 12.4168 2.37553 12.547 2.81812C12.5998 2.99734 12.6531 3.17643 12.7063 3.35551C12.743 3.47941 12.7789 3.60348 12.8149 3.72758C13.1496 4.86491 13.6792 5.89993 14.3906 6.84668C14.4236 6.89121 14.4566 6.93575 14.4906 6.98163C14.9884 7.62094 15.5969 8.21729 16.2656 8.6748C16.2957 8.69561 16.3259 8.71642 16.3569 8.73786C17.3694 9.43123 18.4706 9.87209 19.6434 10.2198C19.7822 10.2609 19.9208 10.3027 20.0594 10.3445C20.4717 10.4688 20.8846 10.5911 21.2987 10.7096C21.4594 10.7556 21.6199 10.802 21.7805 10.8485C21.8911 10.8802 22.0019 10.911 22.1128 10.9417C22.1799 10.961 22.247 10.9803 22.3141 10.9997C22.3719 11.0159 22.4296 11.0321 22.489 11.0488C22.6621 11.1213 22.7552 11.2035 22.875 11.3467C22.9014 11.4668 22.9014 11.4668 22.875 11.5811C22.7344 11.7535 22.6056 11.8091 22.3943 11.8707C22.3508 11.8837 22.3508 11.8837 22.3064 11.8969C22.2106 11.9253 22.1145 11.9528 22.0184 11.9804C21.9507 12.0003 21.8831 12.0203 21.8154 12.0403C21.6367 12.093 21.4578 12.145 21.2789 12.1969C21.1007 12.2486 20.9227 12.3009 20.7448 12.3531C20.7101 12.3633 20.6754 12.3735 20.6397 12.384C20.5703 12.4044 20.5008 12.4248 20.4314 12.4452C20.3625 12.4654 20.2936 12.4856 20.2247 12.5058C19.8004 12.6302 19.3768 12.7565 18.9553 12.8903C18.896 12.909 18.896 12.909 18.8355 12.9282C17.0023 13.5174 15.3839 14.6612 14.25 16.2217C14.2304 16.2486 14.2108 16.2755 14.1906 16.3032C13.9389 16.6532 13.7212 17.0197 13.5176 17.3994C13.4979 17.4354 13.4783 17.4713 13.4581 17.5084C12.9993 18.3878 12.7418 19.3575 12.4657 20.3054C12.417 20.4721 12.3679 20.6386 12.3189 20.8052C12.2901 20.9029 12.2614 21.0006 12.2327 21.0983C12.214 21.1619 12.1953 21.2254 12.1766 21.2889C12.0916 21.5779 12.0067 21.8668 11.9272 22.1573C11.9168 22.1947 11.9064 22.2322 11.8956 22.2707C11.8699 22.3637 11.8448 22.4569 11.8199 22.5501C11.7612 22.702 11.7055 22.7778 11.5781 22.8779C11.4375 22.9043 11.4375 22.9043 11.2969 22.8779C11.1503 22.7229 11.077 22.5837 11.0173 22.3803C11.0018 22.3284 10.9863 22.2765 10.9703 22.2231C10.9541 22.167 10.938 22.111 10.9213 22.0532C10.8946 21.9631 10.8679 21.8731 10.8412 21.783C10.8038 21.6564 10.7669 21.5297 10.73 21.4029C10.6848 21.2481 10.6391 21.0935 10.5935 20.9388C10.5845 20.9085 10.5756 20.8782 10.5663 20.8469C10.5482 20.7856 10.5301 20.7242 10.512 20.6629C10.4848 20.5706 10.4576 20.4784 10.4304 20.3861C10.3028 19.9536 10.1726 19.522 10.0399 19.0911C10.0147 19.0089 10.0147 19.0089 9.98906 18.925C9.63317 17.7771 9.08185 16.714 8.29688 15.7998C8.26243 15.7594 8.22799 15.719 8.1925 15.6773C8.08907 15.5594 7.98291 15.4449 7.875 15.3311C7.85365 15.3082 7.83231 15.2853 7.81032 15.2617C6.08558 13.4237 3.75559 12.8113 1.41705 12.1236C1.36603 12.1085 1.31501 12.0934 1.26245 12.0779C1.05156 12.0157 0.840909 11.9542 0.6278 11.9001C0.540097 11.8775 0.540097 11.8775 0.450623 11.8544C0.402966 11.843 0.35531 11.8316 0.30621 11.8198C0.152988 11.7537 0.0891201 11.6736 0 11.5342C0 11.3877 0 11.3877 0.046875 11.2529C0.190278 11.1203 0.335927 11.0719 0.521645 11.0177C0.579969 11.0005 0.638294 10.9832 0.698386 10.9655C0.729558 10.9564 0.760731 10.9474 0.792848 10.9381C0.892202 10.9094 0.991407 10.8802 1.09059 10.8509C1.26735 10.7987 1.44423 10.747 1.62116 10.6954C2.4689 10.4481 3.31589 10.2002 4.15393 9.92139C4.23955 9.89301 4.23955 9.89301 4.3269 9.86406C5.48272 9.47486 6.50068 8.84587 7.39655 8.01947C7.48663 7.93704 7.57858 7.8588 7.67285 7.78125C7.85395 7.62614 8.00441 7.45197 8.15625 7.26855C8.18644 7.23295 8.18644 7.23295 8.21725 7.19662C9.13968 6.10624 9.72399 4.85014 10.1375 3.49172C10.1758 3.36576 10.2146 3.23994 10.2534 3.11413C10.3959 2.65099 10.5334 2.18664 10.6668 1.72083C10.6941 1.62611 10.7214 1.53139 10.7487 1.43668C10.8011 1.25516 10.8523 1.07339 10.903 0.891415C10.9269 0.808317 10.9507 0.725228 10.9746 0.642151C10.9899 0.585666 10.9899 0.585666 11.0055 0.52804C11.0815 0.268151 11.1834 0.00613585 11.4902 0Z" fill="#080808"/>
</svg>
