<svg width="20" height="20" viewBox="0 0 20 20" fill="none" xmlns="http://www.w3.org/2000/svg">
<path d="M8.76703 0.0119775C8.79599 0.0116997 8.82496 0.0114219 8.8548 0.0111357C8.95046 0.010304 9.04612 0.00980886 9.14178 0.00938693C9.19105 0.0091285 9.19105 0.0091285 9.24131 0.00886485C9.41535 0.00798381 9.58939 0.007379 9.76344 0.00698219C9.94215 0.00651607 10.1208 0.0050635 10.2995 0.00338164C10.4378 0.00226964 10.5761 0.00192181 10.7144 0.00177059C10.7802 0.00156621 10.846 0.00107905 10.9118 0.000289398C11.4736 -0.00602908 11.9137 0.0895432 12.365 0.4422C12.3911 0.462417 12.4171 0.482634 12.4439 0.503464C12.7116 0.739615 12.9328 1.14562 12.9991 1.49905C13.0032 1.60032 13.0047 1.70169 13.0049 1.80304C13.0051 1.84925 13.0051 1.84925 13.0053 1.8964C13.0056 2.00019 13.0056 2.10398 13.0056 2.20778C13.0058 2.28272 13.006 2.35767 13.0062 2.43261C13.0067 2.63899 13.0069 2.84538 13.0071 3.05176C13.0074 3.27417 13.0079 3.49658 13.0083 3.71899C13.0094 4.25625 13.01 4.7935 13.0105 5.33076C13.0107 5.48243 13.0108 5.63411 13.011 5.78578C13.0121 6.72721 13.013 7.66864 13.0135 8.61007C13.0137 8.82813 13.0138 9.0462 13.0139 9.26427C13.0139 9.31847 13.014 9.37267 13.014 9.42851C13.0145 10.3072 13.016 11.1859 13.0177 12.0646C13.0195 12.9662 13.0205 13.8678 13.0207 14.7694C13.0209 15.2759 13.0214 15.7823 13.0228 16.2887C13.0239 16.7199 13.0244 17.151 13.0239 17.5822C13.0237 17.8022 13.0238 18.0223 13.0249 18.2424C13.0258 18.4437 13.0258 18.6451 13.025 18.8464C13.0249 18.9194 13.0251 18.9923 13.0258 19.0653C13.0266 19.1643 13.0261 19.2632 13.0252 19.3622C13.0253 19.4173 13.0254 19.4723 13.0254 19.529C12.9908 19.7234 12.9259 19.7918 12.7877 19.9305C12.6815 19.9836 12.6083 19.9786 12.4893 19.9793C12.4214 19.9798 12.4214 19.9798 12.3521 19.9804C12.2773 19.9806 12.2773 19.9806 12.2009 19.9809C12.1485 19.9813 12.0961 19.9816 12.0422 19.982C11.8682 19.983 11.6942 19.9837 11.5202 19.9843C11.4603 19.9846 11.4004 19.9848 11.3405 19.985C11.0913 19.9859 10.8421 19.9867 10.5929 19.9872C10.2358 19.9879 9.87869 19.9893 9.52161 19.9917C9.27051 19.9933 9.01942 19.9942 8.76832 19.9944C8.61836 19.9945 8.46843 19.995 8.31848 19.9964C8.15108 19.9979 7.98371 19.9977 7.81631 19.9974C7.74198 19.9985 7.74198 19.9985 7.66615 19.9995C7.29147 19.9967 7.29147 19.9967 7.13519 19.8708C6.98425 19.7 6.99085 19.61 6.99054 19.3839C6.99044 19.3532 6.99034 19.3226 6.99024 19.291C6.98996 19.1872 6.98998 19.0835 6.98999 18.9797C6.98986 18.905 6.9897 18.8303 6.98952 18.7555C6.9891 18.5494 6.98894 18.3432 6.98883 18.137C6.98867 17.915 6.98826 17.693 6.98789 17.4709C6.98706 16.9342 6.98663 16.3975 6.98625 15.8607C6.98607 15.6081 6.98584 15.3555 6.98562 15.1028C6.9849 14.2631 6.98429 13.4234 6.98398 12.5837C6.9839 12.3657 6.98382 12.1477 6.98374 11.9296C6.98372 11.8754 6.9837 11.8212 6.98368 11.7654C6.98333 10.8877 6.98225 10.0099 6.98088 9.13221C6.97948 8.2314 6.97872 7.3306 6.97859 6.42979C6.9785 5.92389 6.97813 5.41799 6.97705 4.91209C6.97613 4.48118 6.97579 4.05027 6.9762 3.61936C6.97639 3.39952 6.97631 3.17969 6.97549 2.95986C6.97475 2.75846 6.97479 2.55707 6.97544 2.35567C6.97554 2.28295 6.97536 2.21023 6.97486 2.13751C6.97115 1.56395 7.05812 1.11537 7.41896 0.653569C7.43917 0.627521 7.45939 0.601473 7.48022 0.574636C7.79831 0.214085 8.29559 0.0157291 8.76703 0.0119775ZM8.30935 1.2639C8.28058 1.29965 8.25181 1.3354 8.22216 1.37223C8.18554 1.41669 8.18554 1.41669 8.14818 1.46206C8.04095 1.62291 8.04781 1.76574 8.04786 1.95377C8.04781 1.98311 8.04777 2.01245 8.04772 2.04268C8.0476 2.14172 8.04779 2.24075 8.04798 2.33979C8.04796 2.41122 8.04793 2.48265 8.04787 2.55407C8.04778 2.75092 8.04795 2.94777 8.04816 3.14462C8.04834 3.35668 8.04828 3.56874 8.04825 3.7808C8.04823 4.1484 8.04836 4.516 8.0486 4.8836C8.04894 5.41509 8.04905 5.94658 8.0491 6.47808C8.0492 7.34032 8.04948 8.20257 8.04988 9.06482C8.05026 9.90256 8.05056 10.7403 8.05074 11.5781C8.05075 11.6297 8.05077 11.6813 8.05078 11.7345C8.05083 11.9934 8.05089 12.2523 8.05094 12.5112C8.05138 14.6602 8.05216 16.8092 8.05307 18.9582C9.3365 18.9582 10.6199 18.9582 11.9423 18.9582C11.9451 16.7599 11.9474 14.5615 11.9487 12.3632C11.9489 12.1038 11.9491 11.8444 11.9492 11.585C11.9493 11.5334 11.9493 11.4817 11.9493 11.4285C11.9499 10.5918 11.9509 9.75506 11.9521 8.91832C11.9532 8.06008 11.9539 7.20184 11.9542 6.3436C11.9544 5.8138 11.9549 5.284 11.956 4.75421C11.9566 4.39116 11.9568 4.02811 11.9567 3.66506C11.9566 3.45544 11.9567 3.24583 11.9574 3.03621C11.958 2.84438 11.958 2.65257 11.9576 2.46074C11.9575 2.39127 11.9577 2.32179 11.9581 2.25232C11.9586 2.158 11.9583 2.0637 11.9579 1.96938C11.9579 1.89074 11.9579 1.89074 11.958 1.81051C11.9286 1.54449 11.8035 1.37472 11.6041 1.20313C11.3751 1.06953 11.1748 1.02918 10.9122 1.02722C10.8679 1.02682 10.8236 1.02641 10.7779 1.02599C10.7066 1.02572 10.7066 1.02572 10.6339 1.02545C10.5846 1.02521 10.5352 1.02497 10.4843 1.02472C10.3799 1.02432 10.2755 1.02404 10.171 1.02388C10.0122 1.02347 9.85339 1.02216 9.69457 1.02082C9.59287 1.02055 9.49118 1.02033 9.38948 1.02016C9.3424 1.01964 9.29531 1.01912 9.24679 1.01858C8.90772 1.01954 8.57841 1.04064 8.30935 1.2639Z" fill="#6B6B6B"/>
<path d="M16.3109 4.57376C16.3634 4.57368 16.416 4.5736 16.4701 4.57352C16.5807 4.57346 16.6912 4.57361 16.8017 4.57397C16.9696 4.57442 17.1375 4.57397 17.3054 4.57343C17.4133 4.57349 17.5213 4.57359 17.6293 4.57376C17.6788 4.57359 17.7284 4.57342 17.7794 4.57324C18.4066 4.57676 19.006 4.6735 19.467 5.13455C19.8701 5.60582 19.9871 6.0447 19.9859 6.6559C19.9861 6.71139 19.9864 6.76687 19.9866 6.82404C19.9872 6.9776 19.9872 7.13116 19.9872 7.28472C19.9873 7.45051 19.9879 7.61629 19.9883 7.78207C19.9893 8.14427 19.9896 8.50647 19.9899 8.86867C19.99 9.09483 19.9903 9.32099 19.9906 9.54715C19.9914 10.1734 19.9921 10.7997 19.9922 11.4259C19.9922 11.466 19.9922 11.506 19.9922 11.5473C19.9923 11.6285 19.9923 11.7096 19.9923 11.7908C19.9923 11.8311 19.9923 11.8714 19.9923 11.9129C19.9923 11.9735 19.9923 11.9735 19.9923 12.0352C19.9925 12.6896 19.9936 13.344 19.9952 13.9984C19.9968 14.6703 19.9976 15.3423 19.9976 16.0142C19.9977 16.3914 19.998 16.7687 19.9993 17.1459C20.0003 17.467 20.0006 17.788 20 18.1091C19.9997 18.2729 19.9997 18.4367 20.0007 18.6006C20.0017 18.7781 20.0011 18.9556 20.0003 19.1331C20.0009 19.185 20.0014 19.2368 20.002 19.2903C19.9981 19.6784 19.9981 19.6784 19.8723 19.835C19.7234 19.9649 19.6574 19.978 19.4642 19.9789C19.4189 19.9792 19.3736 19.9795 19.3268 19.9798C19.2769 19.98 19.2269 19.9801 19.1754 19.9802C19.123 19.9805 19.0705 19.9807 19.0165 19.981C18.8724 19.9817 18.7283 19.9822 18.5841 19.9826C18.4941 19.9828 18.4041 19.983 18.314 19.9833C18.0324 19.9841 17.7507 19.9847 17.469 19.9851C17.1438 19.9855 16.8187 19.9866 16.4935 19.9883C16.2422 19.9896 15.9909 19.9902 15.7395 19.9903C15.5894 19.9904 15.4393 19.9908 15.2892 19.9919C15.1217 19.993 14.9542 19.9929 14.7867 19.9926C14.7122 19.9934 14.7122 19.9934 14.6361 19.9942C14.3015 19.9921 14.3015 19.9921 14.1345 19.8975C13.9978 19.7341 13.9609 19.6175 13.9605 19.4045C13.9603 19.3575 13.96 19.3105 13.9597 19.2621C13.9598 19.2105 13.96 19.1588 13.9601 19.1056C13.9599 19.0508 13.9597 18.9959 13.9595 18.9394C13.959 18.787 13.959 18.6346 13.9591 18.4822C13.9591 18.3179 13.9587 18.1536 13.9583 17.9893C13.9576 17.6672 13.9573 17.3452 13.9573 17.0231C13.9573 16.7612 13.9571 16.4993 13.9568 16.2375C13.9561 15.4948 13.9557 14.7521 13.9557 14.0094C13.9557 13.9694 13.9557 13.9293 13.9558 13.888C13.9558 13.8479 13.9558 13.8078 13.9558 13.7665C13.9558 13.1172 13.955 12.4679 13.9538 11.8186C13.9526 11.1518 13.952 10.4849 13.9521 9.81799C13.9521 9.44367 13.9519 9.06935 13.951 8.69503C13.9502 8.37617 13.95 8.05731 13.9506 7.73845C13.9509 7.57588 13.9509 7.41333 13.9501 7.25076C13.9493 7.07415 13.9499 6.89756 13.9505 6.72095C13.9501 6.67007 13.9496 6.61919 13.9492 6.56677C13.9532 6.07093 14.0843 5.65113 14.3942 5.26137C14.4144 5.23538 14.4346 5.20939 14.4554 5.1826C14.9297 4.64385 15.6383 4.57144 16.3109 4.57376ZM15.2991 5.85981C15.2725 5.89251 15.2459 5.92521 15.2185 5.95889C15.191 5.99159 15.1636 6.02429 15.1353 6.05797C15.0328 6.20234 15.023 6.31758 15.0231 6.48962C15.023 6.53405 15.0229 6.57847 15.0228 6.62425C15.0229 6.67323 15.0231 6.7222 15.0232 6.77266C15.0231 6.82456 15.0231 6.87646 15.0231 6.92993C15.023 7.07424 15.0231 7.21855 15.0234 7.36286C15.0235 7.51838 15.0235 7.6739 15.0234 7.82943C15.0234 8.09897 15.0236 8.36851 15.0238 8.63805C15.0241 9.02776 15.0243 9.41747 15.0243 9.80718C15.0244 10.4394 15.0247 11.0717 15.0251 11.7039C15.0255 12.3182 15.0258 12.9324 15.0259 13.5467C15.026 13.5845 15.026 13.6224 15.026 13.6614C15.026 13.8512 15.0261 14.0411 15.0261 14.231C15.0266 15.8067 15.0274 17.3824 15.0283 18.9581C16.3257 18.9581 17.623 18.9581 18.9597 18.9581C18.9625 17.359 18.9649 15.7599 18.9662 14.1608C18.9664 13.972 18.9665 13.7832 18.9667 13.5944C18.9667 13.5568 18.9668 13.5192 18.9668 13.4805C18.9674 12.872 18.9684 12.2634 18.9695 11.6549C18.9707 11.0304 18.9714 10.4059 18.9717 9.7815C18.9719 9.39619 18.9724 9.01088 18.9734 8.62557C18.9741 8.36134 18.9743 8.09711 18.9741 7.83287C18.9741 7.68043 18.9742 7.528 18.9749 7.37556C18.9756 7.21018 18.9753 7.0448 18.975 6.87942C18.9754 6.83139 18.9757 6.78336 18.9761 6.73387C18.9744 6.43147 18.9531 6.17224 18.757 5.92752C18.7297 5.90474 18.7025 5.88196 18.6744 5.85849C18.6342 5.82334 18.6342 5.82334 18.5931 5.78749C18.3037 5.60781 17.9858 5.62887 17.6562 5.62912C17.5779 5.62885 17.5779 5.62885 17.4981 5.62857C17.388 5.62833 17.278 5.62831 17.1679 5.62849C17.0002 5.62863 16.8325 5.62764 16.6647 5.62656C16.5575 5.62647 16.4503 5.62644 16.3431 5.62648C16.2932 5.62609 16.2434 5.6257 16.1921 5.6253C15.8648 5.62713 15.559 5.64375 15.2991 5.85981Z" fill="#6B6B6B"/>
<path d="M1.79183 7.62135C1.82079 7.62107 1.84976 7.62079 1.8796 7.62051C1.97526 7.61967 2.07092 7.61918 2.16659 7.61876C2.21585 7.6185 2.21585 7.6185 2.26612 7.61823C2.44016 7.61735 2.6142 7.61675 2.78824 7.61635C2.96695 7.61589 3.14564 7.61443 3.32434 7.61275C3.46264 7.61164 3.60093 7.61129 3.73922 7.61114C3.80503 7.61094 3.87084 7.61045 3.93665 7.60966C4.5367 7.60291 5.03199 7.71445 5.48113 8.1376C5.89032 8.57127 6.03717 9.04267 6.03523 9.62833C6.03542 9.67108 6.03561 9.71383 6.03581 9.75788C6.03634 9.90054 6.03627 10.0432 6.0362 10.1858C6.03646 10.2884 6.03674 10.3909 6.03706 10.4934C6.03773 10.7425 6.038 10.9917 6.03804 11.2408C6.03808 11.4434 6.03826 11.6459 6.03853 11.8484C6.03927 12.4229 6.03966 12.9974 6.0396 13.572C6.03959 13.6029 6.03959 13.6338 6.03959 13.6657C6.03958 13.6967 6.03958 13.7276 6.03958 13.7596C6.03954 14.2619 6.04035 14.7643 6.04154 15.2667C6.04276 15.7829 6.04334 16.2992 6.04327 16.8154C6.04324 17.105 6.04347 17.3947 6.04438 17.6844C6.04523 17.9566 6.04521 18.2289 6.04459 18.5011C6.0445 18.6011 6.04471 18.7011 6.04522 18.801C6.04587 18.9374 6.04548 19.0737 6.04482 19.21C6.04526 19.2497 6.04569 19.2893 6.04614 19.3302C6.04365 19.565 6.01433 19.7036 5.85483 19.8883C5.71491 19.9816 5.67184 19.9836 5.50903 19.9844C5.44103 19.985 5.44103 19.985 5.37165 19.9857C5.32191 19.9857 5.27216 19.9857 5.22091 19.9858C5.16852 19.9861 5.11614 19.9865 5.06216 19.9868C4.91839 19.9877 4.77462 19.9881 4.63085 19.9884C4.54099 19.9885 4.45113 19.9888 4.36127 19.9891C4.04769 19.9901 3.7341 19.9907 3.42051 19.9908C3.12839 19.991 2.83628 19.9922 2.54416 19.994C2.29324 19.9955 2.04232 19.9961 1.7914 19.9962C1.64159 19.9962 1.49179 19.9966 1.34199 19.9978C1.1748 19.9991 1.00763 19.9987 0.840438 19.9982C0.766209 19.9991 0.766209 19.9991 0.69048 20.0001C0.316329 19.9967 0.316329 19.9967 0.160038 19.8708C0.040518 19.7357 0.0157602 19.6776 0.0153448 19.5029C0.0151564 19.4662 0.014968 19.4295 0.0147738 19.3917C0.0147855 19.331 0.0147854 19.331 0.0147973 19.2689C0.0146419 19.2261 0.0144864 19.1832 0.0143263 19.139C0.0138583 18.9944 0.013697 18.8498 0.0135363 18.7052C0.0132715 18.6019 0.0129906 18.4986 0.0126945 18.3953C0.0118804 18.0844 0.0114333 17.7736 0.0110573 17.4628C0.010872 17.3163 0.010645 17.1699 0.0104236 17.0235C0.00970415 16.5364 0.00909167 16.0494 0.00878564 15.5624C0.0087049 15.4359 0.00862368 15.3095 0.008541 15.1831C0.00852055 15.1516 0.00850014 15.1202 0.00847908 15.0878C0.00812864 14.5794 0.00705837 14.0711 0.00568408 13.5627C0.00428391 13.0404 0.00352452 12.5182 0.00338964 11.996C0.00329828 11.7029 0.00293099 11.4098 0.00184829 11.1167C0.000831129 10.8407 0.000685717 10.5647 0.00111955 10.2888C0.00114046 10.1877 0.000873942 10.0866 0.000292753 9.98549C-0.00381793 9.22788 0.02809 8.69852 0.573388 8.12951C0.920475 7.79671 1.31347 7.62515 1.79183 7.62135ZM1.24696 8.93932C1.02675 9.22494 1.02934 9.53499 1.03051 9.87888C1.03047 9.91777 1.03044 9.95665 1.0304 9.99671C1.03033 10.1268 1.03056 10.2569 1.03079 10.3869C1.03081 10.4803 1.0308 10.5736 1.03078 10.6669C1.03076 10.9202 1.03101 11.1735 1.03131 11.4267C1.03157 11.6915 1.0316 11.9562 1.03165 12.2209C1.03176 12.6652 1.03203 13.1095 1.0324 13.5538C1.03279 14.0113 1.03309 14.4689 1.03327 14.9264C1.03328 14.9547 1.03329 14.9829 1.03331 15.0119C1.03336 15.1535 1.03341 15.2951 1.03347 15.4366C1.03391 16.6105 1.03468 17.7844 1.03559 18.9583C2.33298 18.9583 3.63037 18.9583 4.96707 18.9583C4.96987 17.7408 4.97221 16.5233 4.97355 15.3059C4.97371 15.1621 4.97387 15.0183 4.97404 14.8746C4.97407 14.846 4.97411 14.8173 4.97414 14.7878C4.97469 14.3245 4.97569 13.8613 4.97686 13.398C4.97804 12.9225 4.97874 12.4471 4.979 11.9716C4.97917 11.7046 4.97956 11.4375 4.98048 11.1705C4.98134 10.9192 4.98161 10.6679 4.98142 10.4166C4.98145 10.3243 4.9817 10.2321 4.98219 10.1398C4.98282 10.0139 4.98267 9.88793 4.98232 9.76196C4.98269 9.72548 4.98306 9.689 4.98344 9.65142C4.98086 9.3039 4.8766 9.06598 4.62888 8.8125C4.31253 8.61731 3.9784 8.63667 3.6186 8.6363C3.57003 8.63616 3.52146 8.63602 3.47142 8.63588C3.36887 8.63566 3.26633 8.63556 3.16378 8.63557C3.00747 8.63548 2.85116 8.63471 2.69485 8.63391C2.595 8.63379 2.49515 8.6337 2.3953 8.63366C2.32559 8.63321 2.32559 8.63321 2.25449 8.63274C1.87352 8.63387 1.53264 8.6638 1.24696 8.93932Z" fill="#6B6B6B"/>
</svg>
