<svg width="24" height="24" viewBox="0 0 24 24" fill="none" xmlns="http://www.w3.org/2000/svg">
<path d="M15.1022 10.2882C16.0921 10.2695 16.9284 10.9604 17.052 11.9506C17.0942 12.2687 17.0599 12.5955 17.0726 12.9138C17.095 13.4755 17.0348 14.0939 17.0777 14.651C17.6623 14.7526 18.2833 14.8012 18.8731 14.8817C19.2725 14.9362 19.6693 14.9566 20.054 15.0922C20.3411 15.1911 20.6027 15.3523 20.8201 15.5643C21.1919 15.9221 21.4692 16.4825 21.4751 17.0009C21.4758 17.2153 21.4521 17.4291 21.4047 17.6382C21.2812 18.2056 21.0174 18.9963 20.8562 19.5841C20.7359 20.0229 20.4843 20.9598 20.3228 21.3295C20.2337 21.5292 20.1082 21.7104 19.9525 21.8639C19.2376 22.5795 18.2858 22.4214 17.3517 22.4212L15.4689 22.42C14.9308 22.424 14.2561 22.468 13.7842 22.1784C13.4113 21.9496 13.0751 21.5285 12.7855 21.201C12.3524 20.7112 11.9216 20.2188 11.4901 19.7278L10.6077 18.7261C10.4267 18.5207 10.2445 18.3192 10.076 18.1031C9.61348 17.5097 9.5908 16.6532 9.98302 16.012C10.2392 15.5869 10.6554 15.2827 11.138 15.1674C12.0106 14.9602 12.558 15.3903 13.2581 15.8227L13.2604 13.325C13.2601 12.9174 13.234 12.1456 13.3143 11.7774C13.3829 11.4606 13.529 11.1657 13.7395 10.9192C14.1037 10.4965 14.5598 10.3299 15.1022 10.2882ZM14.9623 21.0637L17.2235 21.063C17.6167 21.0635 18.5701 21.0982 18.9065 20.9993C19.2854 20.6192 19.8156 18.1336 20.0501 17.493C20.4241 16.4715 19.5433 16.3278 18.7651 16.2366L17.1649 16.0462C16.4661 15.9639 15.7361 16.0458 15.7263 15.1483C15.7151 14.134 15.7596 13.1103 15.7039 12.0998C15.6796 11.737 15.3205 11.6297 14.9967 11.662C14.8561 11.7328 14.6978 11.8309 14.6578 11.9918C14.5833 12.291 14.6078 12.7403 14.6082 13.0569L14.6128 15.5077C14.6136 15.86 14.6122 16.2196 14.6141 16.5726C14.6161 16.9348 14.6462 17.462 14.2411 17.6466C13.6646 17.9092 12.8516 17.1074 12.3367 16.8467C11.9556 16.6537 11.3635 16.1414 11.1023 16.8079C10.9492 17.2265 11.3765 17.5554 11.6447 17.8599L12.68 19.0324L13.703 20.1958C13.9095 20.4314 14.1122 20.6679 14.3294 20.8939C14.4995 21.071 14.7317 21.067 14.9623 21.0637Z" fill="#EABB00"/>
<path d="M10.0987 1.57069C10.7279 1.54 11.4826 1.6148 12.096 1.74953C14.1279 2.19762 15.8988 3.434 17.0196 5.18704C17.597 6.09032 17.9805 7.10361 18.1461 8.1628C18.1795 8.37076 18.2342 8.64643 18.1873 8.8487C18.1462 9.02232 18.0372 9.17221 17.8847 9.26481C17.7291 9.361 17.5409 9.38943 17.3638 9.34353C16.8021 9.19871 16.864 8.60502 16.7746 8.15312C16.6301 7.42949 16.3653 6.73522 15.9912 6.09918C15.1141 4.61891 13.684 3.54854 12.0166 3.12432C10.3295 2.70386 8.54476 2.96118 7.04516 3.84114C5.50123 4.7653 4.48398 6.19039 4.04888 7.92988C3.8855 8.59077 3.83855 9.35875 3.90273 10.0335C4.08205 11.9236 5.0742 13.6423 6.62127 14.7428C7.0392 15.0357 7.50955 15.2243 7.92057 15.5012C8.24255 15.718 8.2396 16.1976 7.96834 16.4778C7.59542 16.863 7.13256 16.5947 6.74009 16.3931C4.33878 15.1414 2.69502 12.6618 2.54143 9.94492C2.40289 7.83995 3.11469 5.76739 4.51733 4.19174C5.99628 2.53647 7.90623 1.69224 10.0987 1.57069Z" fill="#EABB00"/>
<path d="M10.2412 5.36238C10.2629 5.35991 10.2847 5.3582 10.3066 5.35722C10.843 5.33352 11.0584 5.68157 11.0687 6.17081C11.3162 6.20352 11.5154 6.25089 11.7345 6.37727C12.0535 6.56059 12.2857 6.86418 12.3791 7.22006C12.6686 8.32755 11.2926 8.67813 11.0628 7.58207C10.7819 7.57673 10.5012 7.59916 10.2247 7.64906C9.92952 7.70338 9.3516 7.92152 9.44486 8.25109C9.53798 8.58013 10.7224 8.81038 11.0116 8.90088C11.2363 8.9699 11.4545 9.05845 11.6637 9.16544C12.5707 9.63747 12.9632 10.4653 12.4903 11.4484C12.2394 11.97 11.6157 12.3171 11.078 12.4818C11.053 12.9915 11.0525 13.3194 10.5071 13.4995C9.93644 13.5199 9.72227 13.2289 9.69365 12.6912C9.45152 12.6446 9.30613 12.6114 9.08327 12.5049C8.56481 12.2573 8.13684 11.488 8.43761 10.9427C8.51835 10.7948 8.65701 10.6872 8.8203 10.6456C9.33269 10.5113 9.60184 10.8332 9.71076 11.2873C10.1774 11.2902 11.0501 11.2221 11.2994 10.7873C11.5615 10.3303 10.1039 10.0611 9.85312 9.98688C9.64246 9.92643 9.43673 9.84993 9.23774 9.75808C8.26689 9.30506 7.79214 8.52292 8.25827 7.45485C8.5277 6.83751 9.08988 6.58459 9.69433 6.37005C9.6933 5.89335 9.72252 5.51772 10.2412 5.36238Z" fill="#EABB00"/>
</svg>
